G04 #@! TF.GenerationSoftware,KiCad,Pcbnew,(2016-12-15 revision b13c7e4)-master*
G04 #@! TF.CreationDate,2017-03-13T10:32:04-06:00*
G04 #@! TF.ProjectId,ToolHead_PCB,546F6F6C486561645F5043422E6B6963,0.7*
G04 #@! TF.FileFunction,Soldermask,Top*
G04 #@! TF.FilePolarity,Negative*
%FSLAX46Y46*%
G04 Gerber Fmt 4.6, Leading zero omitted, Abs format (unit mm)*
G04 Created by KiCad (PCBNEW (2016-12-15 revision b13c7e4)-master) date Mon Mar 13 10:32:04 2017*
%MOMM*%
%LPD*%
G01*
G04 APERTURE LIST*
%ADD10C,0.100000*%
%ADD11O,2.432000X2.127200*%
%ADD12R,2.432000X2.127200*%
%ADD13R,2.432000X2.432000*%
%ADD14O,2.432000X2.432000*%
%ADD15C,6.600000*%
%ADD16R,2.127200X2.127200*%
%ADD17O,2.127200X2.127200*%
%ADD18O,2.127200X2.432000*%
%ADD19R,2.127200X2.432000*%
%ADD20R,3.400000X6.400000*%
%ADD21R,1.150000X1.600000*%
%ADD22O,1.009600X1.873200*%
%ADD23R,1.460000X1.050000*%
%ADD24R,1.600000X1.150000*%
%ADD25R,1.200000X0.900000*%
%ADD26R,1.600000X1.300000*%
%ADD27R,1.200000X1.150000*%
G04 APERTURE END LIST*
D10*
D11*
X164080000Y-106760000D03*
X164080000Y-104220000D03*
X164080000Y-101680000D03*
X164080000Y-99140000D03*
X164080000Y-96600000D03*
X164080000Y-94060000D03*
X164080000Y-91520000D03*
X164080000Y-88980000D03*
X164080000Y-86440000D03*
D12*
X164080000Y-83900000D03*
D13*
X129005000Y-85000000D03*
D14*
X131545000Y-85000000D03*
D15*
X144500000Y-91000000D03*
D16*
X124505000Y-100200000D03*
D17*
X121965000Y-100200000D03*
X124505000Y-97660000D03*
X121965000Y-97660000D03*
X124505000Y-95120000D03*
X121965000Y-95120000D03*
X124505000Y-92580000D03*
X121965000Y-92580000D03*
X124505000Y-90040000D03*
X121965000Y-90040000D03*
X124505000Y-87500000D03*
X121965000Y-87500000D03*
X124505000Y-84960000D03*
X121965000Y-84960000D03*
X124505000Y-82420000D03*
X121965000Y-82420000D03*
X124505000Y-79880000D03*
X121965000Y-79880000D03*
X124505000Y-77340000D03*
X121965000Y-77340000D03*
D15*
X121465000Y-105250000D03*
X164580000Y-78850000D03*
D18*
X158025000Y-85000000D03*
X155485000Y-85000000D03*
X152945000Y-85000000D03*
D19*
X150405000Y-85000000D03*
D20*
X135000000Y-103550000D03*
X129000000Y-103550000D03*
D21*
X127500000Y-91300000D03*
X127500000Y-89400000D03*
D19*
X137165000Y-85000000D03*
D18*
X139705000Y-85000000D03*
X142245000Y-85000000D03*
X144785000Y-85000000D03*
D14*
X155485000Y-99100000D03*
D13*
X158025000Y-99100000D03*
D14*
X142245000Y-99100000D03*
D13*
X144785000Y-99100000D03*
D22*
X130095000Y-88706000D03*
X131365000Y-88706000D03*
X132635000Y-88706000D03*
X133905000Y-88706000D03*
X133905000Y-94294000D03*
X132635000Y-94294000D03*
X131365000Y-94294000D03*
X130095000Y-94294000D03*
D23*
X138600000Y-91500000D03*
X138600000Y-90550000D03*
X138600000Y-92450000D03*
X136400000Y-92450000D03*
X136400000Y-91500000D03*
X136400000Y-90550000D03*
D21*
X127600000Y-99050000D03*
X127600000Y-97150000D03*
D24*
X135250000Y-96900000D03*
X137150000Y-96900000D03*
X131050000Y-96900000D03*
X132950000Y-96900000D03*
D25*
X150835000Y-89770000D03*
X152835000Y-89770000D03*
X155635000Y-89770000D03*
X157635000Y-89770000D03*
D26*
X157735000Y-91770000D03*
X155535000Y-91770000D03*
X150735000Y-91770000D03*
X152935000Y-91770000D03*
X152935000Y-87770000D03*
X150735000Y-87770000D03*
X157735000Y-87770000D03*
X155535000Y-87770000D03*
D27*
X126450000Y-94000000D03*
X127950000Y-94000000D03*
M02*
