G04 #@! TF.GenerationSoftware,KiCad,Pcbnew,(2016-12-15 revision b13c7e4)-master*
G04 #@! TF.CreationDate,2017-03-13T10:32:04-06:00*
G04 #@! TF.ProjectId,ToolHead_PCB,546F6F6C486561645F5043422E6B6963,0.7*
G04 #@! TF.FileFunction,Copper,L2,Bot,Signal*
G04 #@! TF.FilePolarity,Positive*
%FSLAX46Y46*%
G04 Gerber Fmt 4.6, Leading zero omitted, Abs format (unit mm)*
G04 Created by KiCad (PCBNEW (2016-12-15 revision b13c7e4)-master) date Mon Mar 13 10:32:04 2017*
%MOMM*%
%LPD*%
G01*
G04 APERTURE LIST*
%ADD10C,0.100000*%
%ADD11O,2.032000X1.727200*%
%ADD12R,2.032000X1.727200*%
%ADD13R,2.032000X2.032000*%
%ADD14O,2.032000X2.032000*%
%ADD15C,6.200000*%
%ADD16R,1.727200X1.727200*%
%ADD17O,1.727200X1.727200*%
%ADD18O,1.727200X2.032000*%
%ADD19R,1.727200X2.032000*%
%ADD20C,0.800000*%
%ADD21C,0.250000*%
%ADD22C,1.000000*%
%ADD23C,0.400000*%
%ADD24C,0.254000*%
G04 APERTURE END LIST*
D10*
D11*
X164080000Y-106760000D03*
X164080000Y-104220000D03*
X164080000Y-101680000D03*
X164080000Y-99140000D03*
X164080000Y-96600000D03*
X164080000Y-94060000D03*
X164080000Y-91520000D03*
X164080000Y-88980000D03*
X164080000Y-86440000D03*
D12*
X164080000Y-83900000D03*
D13*
X129005000Y-85000000D03*
D14*
X131545000Y-85000000D03*
D15*
X144500000Y-91000000D03*
D16*
X124505000Y-100200000D03*
D17*
X121965000Y-100200000D03*
X124505000Y-97660000D03*
X121965000Y-97660000D03*
X124505000Y-95120000D03*
X121965000Y-95120000D03*
X124505000Y-92580000D03*
X121965000Y-92580000D03*
X124505000Y-90040000D03*
X121965000Y-90040000D03*
X124505000Y-87500000D03*
X121965000Y-87500000D03*
X124505000Y-84960000D03*
X121965000Y-84960000D03*
X124505000Y-82420000D03*
X121965000Y-82420000D03*
X124505000Y-79880000D03*
X121965000Y-79880000D03*
X124505000Y-77340000D03*
X121965000Y-77340000D03*
D15*
X121465000Y-105250000D03*
X164580000Y-78850000D03*
D18*
X158025000Y-85000000D03*
X155485000Y-85000000D03*
X152945000Y-85000000D03*
D19*
X150405000Y-85000000D03*
X137165000Y-85000000D03*
D18*
X139705000Y-85000000D03*
X142245000Y-85000000D03*
X144785000Y-85000000D03*
D14*
X155485000Y-99100000D03*
D13*
X158025000Y-99100000D03*
D14*
X142245000Y-99100000D03*
D13*
X144785000Y-99100000D03*
D20*
X135000000Y-91500000D03*
X150735000Y-93020000D03*
X157735000Y-93020000D03*
X119919491Y-91300000D03*
X129150000Y-99050000D03*
X154240000Y-91770000D03*
X135250000Y-98870000D03*
D21*
X144000000Y-91500000D02*
X135000000Y-91500000D01*
X130751609Y-94489085D02*
X149265915Y-94489085D01*
X149265915Y-94489085D02*
X150735000Y-93020000D01*
X123205000Y-88800000D02*
X125062524Y-88800000D01*
X125062524Y-88800000D02*
X130751609Y-94489085D01*
X121965000Y-90040000D02*
X123205000Y-88800000D01*
X155815905Y-94939095D02*
X128618225Y-94939095D01*
X125029210Y-91350080D02*
X123194920Y-91350080D01*
X123194920Y-91350080D02*
X121965000Y-92580000D01*
X157735000Y-93020000D02*
X155815905Y-94939095D01*
X128618225Y-94939095D02*
X125029210Y-91350080D01*
D22*
X163969783Y-83900000D02*
X163269783Y-83200000D01*
X129005318Y-85000000D02*
X129005000Y-85000000D01*
X163269783Y-83200000D02*
X130805318Y-83200000D01*
X130805318Y-83200000D02*
X129005318Y-85000000D01*
X128497706Y-81332706D02*
X128497706Y-84492706D01*
X128497706Y-84492706D02*
X129005000Y-85000000D01*
X124505000Y-77340000D02*
X128497706Y-81332706D01*
D21*
X120699671Y-98158801D02*
X120699671Y-81145329D01*
X120699671Y-81145329D02*
X121965000Y-79880000D01*
X129009957Y-98090043D02*
X141190043Y-98090043D01*
X142200000Y-99100000D02*
X142245000Y-99100000D01*
X125800183Y-101299817D02*
X129009957Y-98090043D01*
X125601740Y-101498078D02*
X125800001Y-101299817D01*
X125800001Y-101299817D02*
X125800183Y-101299817D01*
X141190043Y-98090043D02*
X142200000Y-99100000D01*
X120699671Y-98158801D02*
X121440870Y-98900000D01*
X121440870Y-98900000D02*
X122419130Y-98900000D01*
X122419130Y-98900000D02*
X123199299Y-99680169D01*
X123199299Y-99680169D02*
X123199299Y-101300897D01*
X123396480Y-101498078D02*
X125601740Y-101498078D01*
X123199299Y-101300897D02*
X123396480Y-101498078D01*
D23*
X144785000Y-85000000D02*
X144785000Y-85152400D01*
X144785000Y-85152400D02*
X141617400Y-88320000D01*
X125325000Y-88320000D02*
X124505000Y-87500000D01*
X141617400Y-88320000D02*
X125325000Y-88320000D01*
X125368599Y-85823599D02*
X124505000Y-84960000D01*
X127248750Y-87703750D02*
X125368599Y-85823599D01*
X139687064Y-87703750D02*
X127248750Y-87703750D01*
X139690357Y-87707043D02*
X139687064Y-87703750D01*
X142245000Y-85152400D02*
X139690357Y-87707043D01*
X137696260Y-87103740D02*
X137692529Y-87100009D01*
X137692529Y-87100009D02*
X127501013Y-87100009D01*
X127501013Y-87100009D02*
X127497282Y-87103740D01*
X125368599Y-83283599D02*
X124505000Y-82420000D01*
X126108402Y-84023402D02*
X125368599Y-83283599D01*
X127497282Y-87103740D02*
X126108402Y-85714860D01*
X126108402Y-85714860D02*
X126108402Y-84023402D01*
X139705000Y-85095000D02*
X137696260Y-87103740D01*
X135800000Y-86500000D02*
X127742084Y-86500000D01*
X125368599Y-80743599D02*
X124505000Y-79880000D01*
X126761670Y-82136670D02*
X125368599Y-80743599D01*
X126761670Y-85519586D02*
X126761670Y-82136670D01*
X127742084Y-86500000D02*
X126761670Y-85519586D01*
X137165000Y-85135000D02*
X135800000Y-86500000D01*
D21*
X126910602Y-97189398D02*
X159730000Y-97189398D01*
X159730000Y-97189398D02*
X160591189Y-97189398D01*
X163927600Y-99140000D02*
X161976998Y-97189398D01*
X161976998Y-97189398D02*
X159730000Y-97189398D01*
X121965000Y-97660000D02*
X123205000Y-98900000D01*
X125200000Y-98900000D02*
X126910602Y-97189398D01*
X123205000Y-98900000D02*
X125200000Y-98900000D01*
X126978495Y-95839365D02*
X156930000Y-95839365D01*
X156930000Y-95839365D02*
X158053235Y-95839365D01*
X163927600Y-91520000D02*
X159608235Y-95839365D01*
X159608235Y-95839365D02*
X156930000Y-95839365D01*
X121965000Y-95120000D02*
X123185070Y-93899930D01*
X123185070Y-93899930D02*
X125039060Y-93899930D01*
X125039060Y-93899930D02*
X126978495Y-95839365D01*
X161910000Y-96739386D02*
X163950613Y-96739386D01*
X161910000Y-96739386D02*
X162385614Y-96739386D01*
X160200000Y-96739386D02*
X161910000Y-96739386D01*
X125368599Y-96796401D02*
X124505000Y-97660000D01*
X125425614Y-96739386D02*
X125368599Y-96796401D01*
X160200000Y-96739386D02*
X125425614Y-96739386D01*
X124505000Y-97660000D02*
X125425615Y-96739385D01*
X157518246Y-95389354D02*
X127314354Y-95389354D01*
X163927600Y-88980000D02*
X157518246Y-95389354D01*
X127314354Y-95389354D02*
X124505000Y-92580000D01*
X164080000Y-101680000D02*
X157930000Y-101680000D01*
X157930000Y-101680000D02*
X155485000Y-99235000D01*
X155485000Y-99235000D02*
X155485000Y-99100000D01*
X127097003Y-97639407D02*
X154024407Y-97639407D01*
X154024409Y-97639409D02*
X155485000Y-99100000D01*
X154024407Y-97639407D02*
X154024409Y-97639409D01*
X124536410Y-100200000D02*
X127097003Y-97639407D01*
X163927600Y-94060000D02*
X161698224Y-96289376D01*
X160110204Y-96289376D02*
X159680000Y-96289376D01*
X159680000Y-96289376D02*
X125674376Y-96289376D01*
X161698224Y-96289376D02*
X159680000Y-96289376D01*
X125674376Y-96289376D02*
X124505000Y-95120000D01*
D24*
G36*
X164853000Y-75369236D02*
X163890624Y-75368397D01*
X162610748Y-75897231D01*
X161630672Y-76875597D01*
X161099605Y-78154549D01*
X161098397Y-79539376D01*
X161627231Y-80819252D01*
X162605597Y-81799328D01*
X163884549Y-82330395D01*
X165269376Y-82331603D01*
X166549252Y-81802769D01*
X167529328Y-80824403D01*
X168060395Y-79545451D01*
X168061238Y-78579384D01*
X168124000Y-78894911D01*
X168124000Y-108794000D01*
X121509911Y-108794000D01*
X121192000Y-108730764D01*
X122154376Y-108731603D01*
X123434252Y-108202769D01*
X124414328Y-107224403D01*
X124500381Y-107017163D01*
X162709858Y-107017163D01*
X162753439Y-107177622D01*
X163002634Y-107595164D01*
X163392646Y-107885560D01*
X163864100Y-108004600D01*
X164016500Y-108004600D01*
X164016500Y-106823500D01*
X164143500Y-106823500D01*
X164143500Y-108004600D01*
X164295900Y-108004600D01*
X164767354Y-107885560D01*
X165157366Y-107595164D01*
X165406561Y-107177622D01*
X165450142Y-107017163D01*
X165379995Y-106823500D01*
X164143500Y-106823500D01*
X164016500Y-106823500D01*
X162780005Y-106823500D01*
X162709858Y-107017163D01*
X124500381Y-107017163D01*
X124713947Y-106502837D01*
X162709858Y-106502837D01*
X162780005Y-106696500D01*
X164016500Y-106696500D01*
X164016500Y-105515400D01*
X164143500Y-105515400D01*
X164143500Y-106696500D01*
X165379995Y-106696500D01*
X165450142Y-106502837D01*
X165406561Y-106342378D01*
X165157366Y-105924836D01*
X164767354Y-105634440D01*
X164295900Y-105515400D01*
X164143500Y-105515400D01*
X164016500Y-105515400D01*
X163864100Y-105515400D01*
X163392646Y-105634440D01*
X163002634Y-105924836D01*
X162753439Y-106342378D01*
X162709858Y-106502837D01*
X124713947Y-106502837D01*
X124945395Y-105945451D01*
X124946603Y-104560624D01*
X124805861Y-104220000D01*
X162655631Y-104220000D01*
X162750371Y-104696288D01*
X163020166Y-105100065D01*
X163423943Y-105369860D01*
X163900231Y-105464600D01*
X164259769Y-105464600D01*
X164736057Y-105369860D01*
X165139834Y-105100065D01*
X165409629Y-104696288D01*
X165504369Y-104220000D01*
X165409629Y-103743712D01*
X165139834Y-103339935D01*
X164736057Y-103070140D01*
X164259769Y-102975400D01*
X163900231Y-102975400D01*
X163423943Y-103070140D01*
X163020166Y-103339935D01*
X162750371Y-103743712D01*
X162655631Y-104220000D01*
X124805861Y-104220000D01*
X124417769Y-103280748D01*
X123439403Y-102300672D01*
X122160451Y-101769605D01*
X120775624Y-101768397D01*
X119495748Y-102297231D01*
X118515672Y-103275597D01*
X117984605Y-104554549D01*
X117983762Y-105520616D01*
X117921000Y-105205089D01*
X117921000Y-100515231D01*
X120760983Y-100515231D01*
X120890720Y-100828473D01*
X121213001Y-101191742D01*
X121649767Y-101404028D01*
X121842000Y-101343268D01*
X121842000Y-100323000D01*
X120822250Y-100323000D01*
X120760983Y-100515231D01*
X117921000Y-100515231D01*
X117921000Y-81145329D01*
X120193671Y-81145329D01*
X120193671Y-98158801D01*
X120232188Y-98352439D01*
X120341875Y-98516597D01*
X121083074Y-99257796D01*
X121137054Y-99293864D01*
X120890720Y-99571527D01*
X120760983Y-99884769D01*
X120822250Y-100077000D01*
X121842000Y-100077000D01*
X121842000Y-100057000D01*
X122088000Y-100057000D01*
X122088000Y-100077000D01*
X122108000Y-100077000D01*
X122108000Y-100323000D01*
X122088000Y-100323000D01*
X122088000Y-101343268D01*
X122280233Y-101404028D01*
X122693299Y-101203261D01*
X122693299Y-101300897D01*
X122731816Y-101494535D01*
X122841503Y-101658693D01*
X123038684Y-101855874D01*
X123202842Y-101965561D01*
X123396480Y-102004078D01*
X125601740Y-102004078D01*
X125795378Y-101965561D01*
X125959536Y-101855874D01*
X126157431Y-101657979D01*
X126157979Y-101657613D01*
X129219549Y-98596043D01*
X140942799Y-98596043D01*
X140848000Y-99072631D01*
X140848000Y-99127369D01*
X140954340Y-99661978D01*
X141257172Y-100115197D01*
X141710391Y-100418029D01*
X142245000Y-100524369D01*
X142779609Y-100418029D01*
X143232828Y-100115197D01*
X143380536Y-99894137D01*
X143380536Y-100116000D01*
X143410106Y-100264659D01*
X143494314Y-100390686D01*
X143620341Y-100474894D01*
X143769000Y-100504464D01*
X145801000Y-100504464D01*
X145949659Y-100474894D01*
X146075686Y-100390686D01*
X146159894Y-100264659D01*
X146189464Y-100116000D01*
X146189464Y-98145407D01*
X153814815Y-98145407D01*
X154199583Y-98530175D01*
X154194340Y-98538022D01*
X154088000Y-99072631D01*
X154088000Y-99127369D01*
X154194340Y-99661978D01*
X154497172Y-100115197D01*
X154950391Y-100418029D01*
X155485000Y-100524369D01*
X155963582Y-100429174D01*
X157572204Y-102037796D01*
X157736362Y-102147483D01*
X157930000Y-102186000D01*
X162770224Y-102186000D01*
X163020166Y-102560065D01*
X163423943Y-102829860D01*
X163900231Y-102924600D01*
X164259769Y-102924600D01*
X164736057Y-102829860D01*
X165139834Y-102560065D01*
X165409629Y-102156288D01*
X165504369Y-101680000D01*
X165409629Y-101203712D01*
X165139834Y-100799935D01*
X164736057Y-100530140D01*
X164259769Y-100435400D01*
X163900231Y-100435400D01*
X163423943Y-100530140D01*
X163020166Y-100799935D01*
X162770224Y-101174000D01*
X158139592Y-101174000D01*
X157470056Y-100504464D01*
X159041000Y-100504464D01*
X159189659Y-100474894D01*
X159315686Y-100390686D01*
X159399894Y-100264659D01*
X159429464Y-100116000D01*
X159429464Y-98084000D01*
X159399894Y-97935341D01*
X159315686Y-97809314D01*
X159189659Y-97725106D01*
X159041000Y-97695536D01*
X157009000Y-97695536D01*
X156860341Y-97725106D01*
X156734314Y-97809314D01*
X156650106Y-97935341D01*
X156620536Y-98084000D01*
X156620536Y-98305863D01*
X156472828Y-98084803D01*
X156019609Y-97781971D01*
X155584376Y-97695398D01*
X161767406Y-97695398D01*
X162747940Y-98675932D01*
X162655631Y-99140000D01*
X162750371Y-99616288D01*
X163020166Y-100020065D01*
X163423943Y-100289860D01*
X163900231Y-100384600D01*
X164259769Y-100384600D01*
X164736057Y-100289860D01*
X165139834Y-100020065D01*
X165409629Y-99616288D01*
X165504369Y-99140000D01*
X165409629Y-98663712D01*
X165139834Y-98259935D01*
X164736057Y-97990140D01*
X164259769Y-97895400D01*
X163900231Y-97895400D01*
X163481820Y-97978628D01*
X162748578Y-97245386D01*
X162863359Y-97245386D01*
X163020166Y-97480065D01*
X163423943Y-97749860D01*
X163900231Y-97844600D01*
X164259769Y-97844600D01*
X164736057Y-97749860D01*
X165139834Y-97480065D01*
X165409629Y-97076288D01*
X165504369Y-96600000D01*
X165409629Y-96123712D01*
X165139834Y-95719935D01*
X164736057Y-95450140D01*
X164259769Y-95355400D01*
X163900231Y-95355400D01*
X163423943Y-95450140D01*
X163020166Y-95719935D01*
X162750371Y-96123712D01*
X162728555Y-96233386D01*
X162469806Y-96233386D01*
X163481820Y-95221372D01*
X163900231Y-95304600D01*
X164259769Y-95304600D01*
X164736057Y-95209860D01*
X165139834Y-94940065D01*
X165409629Y-94536288D01*
X165504369Y-94060000D01*
X165409629Y-93583712D01*
X165139834Y-93179935D01*
X164736057Y-92910140D01*
X164259769Y-92815400D01*
X163900231Y-92815400D01*
X163423943Y-92910140D01*
X163020166Y-93179935D01*
X162750371Y-93583712D01*
X162655631Y-94060000D01*
X162747940Y-94524068D01*
X161488632Y-95783376D01*
X160379816Y-95783376D01*
X163481820Y-92681372D01*
X163900231Y-92764600D01*
X164259769Y-92764600D01*
X164736057Y-92669860D01*
X165139834Y-92400065D01*
X165409629Y-91996288D01*
X165504369Y-91520000D01*
X165409629Y-91043712D01*
X165139834Y-90639935D01*
X164736057Y-90370140D01*
X164259769Y-90275400D01*
X163900231Y-90275400D01*
X163423943Y-90370140D01*
X163020166Y-90639935D01*
X162750371Y-91043712D01*
X162655631Y-91520000D01*
X162747940Y-91984068D01*
X159398643Y-95333365D01*
X158289827Y-95333365D01*
X163481820Y-90141372D01*
X163900231Y-90224600D01*
X164259769Y-90224600D01*
X164736057Y-90129860D01*
X165139834Y-89860065D01*
X165409629Y-89456288D01*
X165504369Y-88980000D01*
X165409629Y-88503712D01*
X165139834Y-88099935D01*
X164736057Y-87830140D01*
X164259769Y-87735400D01*
X163900231Y-87735400D01*
X163423943Y-87830140D01*
X163020166Y-88099935D01*
X162750371Y-88503712D01*
X162655631Y-88980000D01*
X162747940Y-89444068D01*
X157308654Y-94883354D01*
X156587238Y-94883354D01*
X157669649Y-93800943D01*
X157889669Y-93801136D01*
X158176823Y-93682486D01*
X158396714Y-93462979D01*
X158515864Y-93176032D01*
X158516136Y-92865331D01*
X158397486Y-92578177D01*
X158177979Y-92358286D01*
X157891032Y-92239136D01*
X157580331Y-92238864D01*
X157293177Y-92357514D01*
X157073286Y-92577021D01*
X156954136Y-92863968D01*
X156953942Y-93085466D01*
X155606313Y-94433095D01*
X150037497Y-94433095D01*
X150669649Y-93800943D01*
X150889669Y-93801136D01*
X151176823Y-93682486D01*
X151396714Y-93462979D01*
X151515864Y-93176032D01*
X151516136Y-92865331D01*
X151397486Y-92578177D01*
X151177979Y-92358286D01*
X150891032Y-92239136D01*
X150580331Y-92238864D01*
X150293177Y-92357514D01*
X150073286Y-92577021D01*
X149954136Y-92863968D01*
X149953942Y-93085466D01*
X149056323Y-93983085D01*
X146395882Y-93983085D01*
X146469252Y-93952769D01*
X147449328Y-92974403D01*
X147980395Y-91695451D01*
X147981603Y-90310624D01*
X147452769Y-89030748D01*
X146474403Y-88050672D01*
X145195451Y-87519605D01*
X143810624Y-87518397D01*
X142839331Y-87919727D01*
X144319058Y-86440000D01*
X162655631Y-86440000D01*
X162750371Y-86916288D01*
X163020166Y-87320065D01*
X163423943Y-87589860D01*
X163900231Y-87684600D01*
X164259769Y-87684600D01*
X164736057Y-87589860D01*
X165139834Y-87320065D01*
X165409629Y-86916288D01*
X165504369Y-86440000D01*
X165409629Y-85963712D01*
X165139834Y-85559935D01*
X164736057Y-85290140D01*
X164259769Y-85195400D01*
X163900231Y-85195400D01*
X163423943Y-85290140D01*
X163020166Y-85559935D01*
X162750371Y-85963712D01*
X162655631Y-86440000D01*
X144319058Y-86440000D01*
X144409401Y-86349657D01*
X144785000Y-86424369D01*
X145261288Y-86329629D01*
X145665065Y-86059834D01*
X145934860Y-85656057D01*
X146029600Y-85179769D01*
X146029600Y-84820231D01*
X145934860Y-84343943D01*
X145759167Y-84081000D01*
X149152936Y-84081000D01*
X149152936Y-86016000D01*
X149182506Y-86164659D01*
X149266714Y-86290686D01*
X149392741Y-86374894D01*
X149541400Y-86404464D01*
X151268600Y-86404464D01*
X151417259Y-86374894D01*
X151543286Y-86290686D01*
X151627494Y-86164659D01*
X151657064Y-86016000D01*
X151657064Y-84081000D01*
X151970833Y-84081000D01*
X151795140Y-84343943D01*
X151700400Y-84820231D01*
X151700400Y-85179769D01*
X151795140Y-85656057D01*
X152064935Y-86059834D01*
X152468712Y-86329629D01*
X152945000Y-86424369D01*
X153421288Y-86329629D01*
X153825065Y-86059834D01*
X154094860Y-85656057D01*
X154189600Y-85179769D01*
X154189600Y-84820231D01*
X154094860Y-84343943D01*
X153919167Y-84081000D01*
X154510833Y-84081000D01*
X154335140Y-84343943D01*
X154240400Y-84820231D01*
X154240400Y-85179769D01*
X154335140Y-85656057D01*
X154604935Y-86059834D01*
X155008712Y-86329629D01*
X155485000Y-86424369D01*
X155961288Y-86329629D01*
X156365065Y-86059834D01*
X156634860Y-85656057D01*
X156729600Y-85179769D01*
X156729600Y-84820231D01*
X156634860Y-84343943D01*
X156459167Y-84081000D01*
X157050833Y-84081000D01*
X156875140Y-84343943D01*
X156780400Y-84820231D01*
X156780400Y-85179769D01*
X156875140Y-85656057D01*
X157144935Y-86059834D01*
X157548712Y-86329629D01*
X158025000Y-86424369D01*
X158501288Y-86329629D01*
X158905065Y-86059834D01*
X159174860Y-85656057D01*
X159269600Y-85179769D01*
X159269600Y-84820231D01*
X159174860Y-84343943D01*
X158999167Y-84081000D01*
X162675536Y-84081000D01*
X162675536Y-84763600D01*
X162705106Y-84912259D01*
X162789314Y-85038286D01*
X162915341Y-85122494D01*
X163064000Y-85152064D01*
X165096000Y-85152064D01*
X165244659Y-85122494D01*
X165370686Y-85038286D01*
X165454894Y-84912259D01*
X165484464Y-84763600D01*
X165484464Y-83036400D01*
X165454894Y-82887741D01*
X165370686Y-82761714D01*
X165244659Y-82677506D01*
X165096000Y-82647936D01*
X163963641Y-82647936D01*
X163892744Y-82577039D01*
X163606927Y-82386062D01*
X163269783Y-82319000D01*
X130805318Y-82319000D01*
X130468173Y-82386062D01*
X130182357Y-82577039D01*
X129378706Y-83380690D01*
X129378706Y-81332706D01*
X129311644Y-80995562D01*
X129120667Y-80709745D01*
X125770157Y-77359235D01*
X125773983Y-77340000D01*
X125679243Y-76863712D01*
X125409448Y-76459935D01*
X125005671Y-76190140D01*
X124529383Y-76095400D01*
X124480617Y-76095400D01*
X124004329Y-76190140D01*
X123600552Y-76459935D01*
X123330757Y-76863712D01*
X123236017Y-77340000D01*
X123330757Y-77816288D01*
X123600552Y-78220065D01*
X124004329Y-78489860D01*
X124480617Y-78584600D01*
X124503678Y-78584600D01*
X124560709Y-78641631D01*
X124529383Y-78635400D01*
X124480617Y-78635400D01*
X124004329Y-78730140D01*
X123600552Y-78999935D01*
X123330757Y-79403712D01*
X123236017Y-79880000D01*
X123330757Y-80356288D01*
X123600552Y-80760065D01*
X124004329Y-81029860D01*
X124480617Y-81124600D01*
X124529383Y-81124600D01*
X124861817Y-81058475D01*
X125210031Y-81406689D01*
X125005671Y-81270140D01*
X124529383Y-81175400D01*
X124480617Y-81175400D01*
X124004329Y-81270140D01*
X123600552Y-81539935D01*
X123330757Y-81943712D01*
X123236017Y-82420000D01*
X123330757Y-82896288D01*
X123600552Y-83300065D01*
X124004329Y-83569860D01*
X124480617Y-83664600D01*
X124529383Y-83664600D01*
X124861817Y-83598475D01*
X125210031Y-83946689D01*
X125005671Y-83810140D01*
X124529383Y-83715400D01*
X124480617Y-83715400D01*
X124004329Y-83810140D01*
X123600552Y-84079935D01*
X123330757Y-84483712D01*
X123236017Y-84960000D01*
X123330757Y-85436288D01*
X123600552Y-85840065D01*
X124004329Y-86109860D01*
X124480617Y-86204600D01*
X124529383Y-86204600D01*
X124861817Y-86138475D01*
X125210031Y-86486689D01*
X125005671Y-86350140D01*
X124529383Y-86255400D01*
X124480617Y-86255400D01*
X124004329Y-86350140D01*
X123600552Y-86619935D01*
X123330757Y-87023712D01*
X123236017Y-87500000D01*
X123330757Y-87976288D01*
X123543045Y-88294000D01*
X123205000Y-88294000D01*
X123011362Y-88332517D01*
X122847204Y-88442204D01*
X122410285Y-88879123D01*
X121989383Y-88795400D01*
X121940617Y-88795400D01*
X121464329Y-88890140D01*
X121205671Y-89062970D01*
X121205671Y-88477030D01*
X121464329Y-88649860D01*
X121940617Y-88744600D01*
X121989383Y-88744600D01*
X122465671Y-88649860D01*
X122869448Y-88380065D01*
X123139243Y-87976288D01*
X123233983Y-87500000D01*
X123139243Y-87023712D01*
X122869448Y-86619935D01*
X122465671Y-86350140D01*
X121989383Y-86255400D01*
X121940617Y-86255400D01*
X121464329Y-86350140D01*
X121205671Y-86522970D01*
X121205671Y-85937030D01*
X121464329Y-86109860D01*
X121940617Y-86204600D01*
X121989383Y-86204600D01*
X122465671Y-86109860D01*
X122869448Y-85840065D01*
X123139243Y-85436288D01*
X123233983Y-84960000D01*
X123139243Y-84483712D01*
X122869448Y-84079935D01*
X122465671Y-83810140D01*
X121989383Y-83715400D01*
X121940617Y-83715400D01*
X121464329Y-83810140D01*
X121205671Y-83982970D01*
X121205671Y-83397030D01*
X121464329Y-83569860D01*
X121940617Y-83664600D01*
X121989383Y-83664600D01*
X122465671Y-83569860D01*
X122869448Y-83300065D01*
X123139243Y-82896288D01*
X123233983Y-82420000D01*
X123139243Y-81943712D01*
X122869448Y-81539935D01*
X122465671Y-81270140D01*
X121989383Y-81175400D01*
X121940617Y-81175400D01*
X121464329Y-81270140D01*
X121205671Y-81442970D01*
X121205671Y-81354921D01*
X121519715Y-81040877D01*
X121940617Y-81124600D01*
X121989383Y-81124600D01*
X122465671Y-81029860D01*
X122869448Y-80760065D01*
X123139243Y-80356288D01*
X123233983Y-79880000D01*
X123139243Y-79403712D01*
X122869448Y-78999935D01*
X122465671Y-78730140D01*
X121989383Y-78635400D01*
X121940617Y-78635400D01*
X121464329Y-78730140D01*
X121060552Y-78999935D01*
X120790757Y-79403712D01*
X120696017Y-79880000D01*
X120787831Y-80341577D01*
X120341875Y-80787533D01*
X120232188Y-80951691D01*
X120193671Y-81145329D01*
X117921000Y-81145329D01*
X117921000Y-77340000D01*
X120696017Y-77340000D01*
X120790757Y-77816288D01*
X121060552Y-78220065D01*
X121464329Y-78489860D01*
X121940617Y-78584600D01*
X121989383Y-78584600D01*
X122465671Y-78489860D01*
X122869448Y-78220065D01*
X123139243Y-77816288D01*
X123233983Y-77340000D01*
X123139243Y-76863712D01*
X122869448Y-76459935D01*
X122465671Y-76190140D01*
X121989383Y-76095400D01*
X121940617Y-76095400D01*
X121464329Y-76190140D01*
X121060552Y-76459935D01*
X120790757Y-76863712D01*
X120696017Y-77340000D01*
X117921000Y-77340000D01*
X117921000Y-75306000D01*
X164535089Y-75306000D01*
X164853000Y-75369236D01*
X164853000Y-75369236D01*
G37*
X164853000Y-75369236D02*
X163890624Y-75368397D01*
X162610748Y-75897231D01*
X161630672Y-76875597D01*
X161099605Y-78154549D01*
X161098397Y-79539376D01*
X161627231Y-80819252D01*
X162605597Y-81799328D01*
X163884549Y-82330395D01*
X165269376Y-82331603D01*
X166549252Y-81802769D01*
X167529328Y-80824403D01*
X168060395Y-79545451D01*
X168061238Y-78579384D01*
X168124000Y-78894911D01*
X168124000Y-108794000D01*
X121509911Y-108794000D01*
X121192000Y-108730764D01*
X122154376Y-108731603D01*
X123434252Y-108202769D01*
X124414328Y-107224403D01*
X124500381Y-107017163D01*
X162709858Y-107017163D01*
X162753439Y-107177622D01*
X163002634Y-107595164D01*
X163392646Y-107885560D01*
X163864100Y-108004600D01*
X164016500Y-108004600D01*
X164016500Y-106823500D01*
X164143500Y-106823500D01*
X164143500Y-108004600D01*
X164295900Y-108004600D01*
X164767354Y-107885560D01*
X165157366Y-107595164D01*
X165406561Y-107177622D01*
X165450142Y-107017163D01*
X165379995Y-106823500D01*
X164143500Y-106823500D01*
X164016500Y-106823500D01*
X162780005Y-106823500D01*
X162709858Y-107017163D01*
X124500381Y-107017163D01*
X124713947Y-106502837D01*
X162709858Y-106502837D01*
X162780005Y-106696500D01*
X164016500Y-106696500D01*
X164016500Y-105515400D01*
X164143500Y-105515400D01*
X164143500Y-106696500D01*
X165379995Y-106696500D01*
X165450142Y-106502837D01*
X165406561Y-106342378D01*
X165157366Y-105924836D01*
X164767354Y-105634440D01*
X164295900Y-105515400D01*
X164143500Y-105515400D01*
X164016500Y-105515400D01*
X163864100Y-105515400D01*
X163392646Y-105634440D01*
X163002634Y-105924836D01*
X162753439Y-106342378D01*
X162709858Y-106502837D01*
X124713947Y-106502837D01*
X124945395Y-105945451D01*
X124946603Y-104560624D01*
X124805861Y-104220000D01*
X162655631Y-104220000D01*
X162750371Y-104696288D01*
X163020166Y-105100065D01*
X163423943Y-105369860D01*
X163900231Y-105464600D01*
X164259769Y-105464600D01*
X164736057Y-105369860D01*
X165139834Y-105100065D01*
X165409629Y-104696288D01*
X165504369Y-104220000D01*
X165409629Y-103743712D01*
X165139834Y-103339935D01*
X164736057Y-103070140D01*
X164259769Y-102975400D01*
X163900231Y-102975400D01*
X163423943Y-103070140D01*
X163020166Y-103339935D01*
X162750371Y-103743712D01*
X162655631Y-104220000D01*
X124805861Y-104220000D01*
X124417769Y-103280748D01*
X123439403Y-102300672D01*
X122160451Y-101769605D01*
X120775624Y-101768397D01*
X119495748Y-102297231D01*
X118515672Y-103275597D01*
X117984605Y-104554549D01*
X117983762Y-105520616D01*
X117921000Y-105205089D01*
X117921000Y-100515231D01*
X120760983Y-100515231D01*
X120890720Y-100828473D01*
X121213001Y-101191742D01*
X121649767Y-101404028D01*
X121842000Y-101343268D01*
X121842000Y-100323000D01*
X120822250Y-100323000D01*
X120760983Y-100515231D01*
X117921000Y-100515231D01*
X117921000Y-81145329D01*
X120193671Y-81145329D01*
X120193671Y-98158801D01*
X120232188Y-98352439D01*
X120341875Y-98516597D01*
X121083074Y-99257796D01*
X121137054Y-99293864D01*
X120890720Y-99571527D01*
X120760983Y-99884769D01*
X120822250Y-100077000D01*
X121842000Y-100077000D01*
X121842000Y-100057000D01*
X122088000Y-100057000D01*
X122088000Y-100077000D01*
X122108000Y-100077000D01*
X122108000Y-100323000D01*
X122088000Y-100323000D01*
X122088000Y-101343268D01*
X122280233Y-101404028D01*
X122693299Y-101203261D01*
X122693299Y-101300897D01*
X122731816Y-101494535D01*
X122841503Y-101658693D01*
X123038684Y-101855874D01*
X123202842Y-101965561D01*
X123396480Y-102004078D01*
X125601740Y-102004078D01*
X125795378Y-101965561D01*
X125959536Y-101855874D01*
X126157431Y-101657979D01*
X126157979Y-101657613D01*
X129219549Y-98596043D01*
X140942799Y-98596043D01*
X140848000Y-99072631D01*
X140848000Y-99127369D01*
X140954340Y-99661978D01*
X141257172Y-100115197D01*
X141710391Y-100418029D01*
X142245000Y-100524369D01*
X142779609Y-100418029D01*
X143232828Y-100115197D01*
X143380536Y-99894137D01*
X143380536Y-100116000D01*
X143410106Y-100264659D01*
X143494314Y-100390686D01*
X143620341Y-100474894D01*
X143769000Y-100504464D01*
X145801000Y-100504464D01*
X145949659Y-100474894D01*
X146075686Y-100390686D01*
X146159894Y-100264659D01*
X146189464Y-100116000D01*
X146189464Y-98145407D01*
X153814815Y-98145407D01*
X154199583Y-98530175D01*
X154194340Y-98538022D01*
X154088000Y-99072631D01*
X154088000Y-99127369D01*
X154194340Y-99661978D01*
X154497172Y-100115197D01*
X154950391Y-100418029D01*
X155485000Y-100524369D01*
X155963582Y-100429174D01*
X157572204Y-102037796D01*
X157736362Y-102147483D01*
X157930000Y-102186000D01*
X162770224Y-102186000D01*
X163020166Y-102560065D01*
X163423943Y-102829860D01*
X163900231Y-102924600D01*
X164259769Y-102924600D01*
X164736057Y-102829860D01*
X165139834Y-102560065D01*
X165409629Y-102156288D01*
X165504369Y-101680000D01*
X165409629Y-101203712D01*
X165139834Y-100799935D01*
X164736057Y-100530140D01*
X164259769Y-100435400D01*
X163900231Y-100435400D01*
X163423943Y-100530140D01*
X163020166Y-100799935D01*
X162770224Y-101174000D01*
X158139592Y-101174000D01*
X157470056Y-100504464D01*
X159041000Y-100504464D01*
X159189659Y-100474894D01*
X159315686Y-100390686D01*
X159399894Y-100264659D01*
X159429464Y-100116000D01*
X159429464Y-98084000D01*
X159399894Y-97935341D01*
X159315686Y-97809314D01*
X159189659Y-97725106D01*
X159041000Y-97695536D01*
X157009000Y-97695536D01*
X156860341Y-97725106D01*
X156734314Y-97809314D01*
X156650106Y-97935341D01*
X156620536Y-98084000D01*
X156620536Y-98305863D01*
X156472828Y-98084803D01*
X156019609Y-97781971D01*
X155584376Y-97695398D01*
X161767406Y-97695398D01*
X162747940Y-98675932D01*
X162655631Y-99140000D01*
X162750371Y-99616288D01*
X163020166Y-100020065D01*
X163423943Y-100289860D01*
X163900231Y-100384600D01*
X164259769Y-100384600D01*
X164736057Y-100289860D01*
X165139834Y-100020065D01*
X165409629Y-99616288D01*
X165504369Y-99140000D01*
X165409629Y-98663712D01*
X165139834Y-98259935D01*
X164736057Y-97990140D01*
X164259769Y-97895400D01*
X163900231Y-97895400D01*
X163481820Y-97978628D01*
X162748578Y-97245386D01*
X162863359Y-97245386D01*
X163020166Y-97480065D01*
X163423943Y-97749860D01*
X163900231Y-97844600D01*
X164259769Y-97844600D01*
X164736057Y-97749860D01*
X165139834Y-97480065D01*
X165409629Y-97076288D01*
X165504369Y-96600000D01*
X165409629Y-96123712D01*
X165139834Y-95719935D01*
X164736057Y-95450140D01*
X164259769Y-95355400D01*
X163900231Y-95355400D01*
X163423943Y-95450140D01*
X163020166Y-95719935D01*
X162750371Y-96123712D01*
X162728555Y-96233386D01*
X162469806Y-96233386D01*
X163481820Y-95221372D01*
X163900231Y-95304600D01*
X164259769Y-95304600D01*
X164736057Y-95209860D01*
X165139834Y-94940065D01*
X165409629Y-94536288D01*
X165504369Y-94060000D01*
X165409629Y-93583712D01*
X165139834Y-93179935D01*
X164736057Y-92910140D01*
X164259769Y-92815400D01*
X163900231Y-92815400D01*
X163423943Y-92910140D01*
X163020166Y-93179935D01*
X162750371Y-93583712D01*
X162655631Y-94060000D01*
X162747940Y-94524068D01*
X161488632Y-95783376D01*
X160379816Y-95783376D01*
X163481820Y-92681372D01*
X163900231Y-92764600D01*
X164259769Y-92764600D01*
X164736057Y-92669860D01*
X165139834Y-92400065D01*
X165409629Y-91996288D01*
X165504369Y-91520000D01*
X165409629Y-91043712D01*
X165139834Y-90639935D01*
X164736057Y-90370140D01*
X164259769Y-90275400D01*
X163900231Y-90275400D01*
X163423943Y-90370140D01*
X163020166Y-90639935D01*
X162750371Y-91043712D01*
X162655631Y-91520000D01*
X162747940Y-91984068D01*
X159398643Y-95333365D01*
X158289827Y-95333365D01*
X163481820Y-90141372D01*
X163900231Y-90224600D01*
X164259769Y-90224600D01*
X164736057Y-90129860D01*
X165139834Y-89860065D01*
X165409629Y-89456288D01*
X165504369Y-88980000D01*
X165409629Y-88503712D01*
X165139834Y-88099935D01*
X164736057Y-87830140D01*
X164259769Y-87735400D01*
X163900231Y-87735400D01*
X163423943Y-87830140D01*
X163020166Y-88099935D01*
X162750371Y-88503712D01*
X162655631Y-88980000D01*
X162747940Y-89444068D01*
X157308654Y-94883354D01*
X156587238Y-94883354D01*
X157669649Y-93800943D01*
X157889669Y-93801136D01*
X158176823Y-93682486D01*
X158396714Y-93462979D01*
X158515864Y-93176032D01*
X158516136Y-92865331D01*
X158397486Y-92578177D01*
X158177979Y-92358286D01*
X157891032Y-92239136D01*
X157580331Y-92238864D01*
X157293177Y-92357514D01*
X157073286Y-92577021D01*
X156954136Y-92863968D01*
X156953942Y-93085466D01*
X155606313Y-94433095D01*
X150037497Y-94433095D01*
X150669649Y-93800943D01*
X150889669Y-93801136D01*
X151176823Y-93682486D01*
X151396714Y-93462979D01*
X151515864Y-93176032D01*
X151516136Y-92865331D01*
X151397486Y-92578177D01*
X151177979Y-92358286D01*
X150891032Y-92239136D01*
X150580331Y-92238864D01*
X150293177Y-92357514D01*
X150073286Y-92577021D01*
X149954136Y-92863968D01*
X149953942Y-93085466D01*
X149056323Y-93983085D01*
X146395882Y-93983085D01*
X146469252Y-93952769D01*
X147449328Y-92974403D01*
X147980395Y-91695451D01*
X147981603Y-90310624D01*
X147452769Y-89030748D01*
X146474403Y-88050672D01*
X145195451Y-87519605D01*
X143810624Y-87518397D01*
X142839331Y-87919727D01*
X144319058Y-86440000D01*
X162655631Y-86440000D01*
X162750371Y-86916288D01*
X163020166Y-87320065D01*
X163423943Y-87589860D01*
X163900231Y-87684600D01*
X164259769Y-87684600D01*
X164736057Y-87589860D01*
X165139834Y-87320065D01*
X165409629Y-86916288D01*
X165504369Y-86440000D01*
X165409629Y-85963712D01*
X165139834Y-85559935D01*
X164736057Y-85290140D01*
X164259769Y-85195400D01*
X163900231Y-85195400D01*
X163423943Y-85290140D01*
X163020166Y-85559935D01*
X162750371Y-85963712D01*
X162655631Y-86440000D01*
X144319058Y-86440000D01*
X144409401Y-86349657D01*
X144785000Y-86424369D01*
X145261288Y-86329629D01*
X145665065Y-86059834D01*
X145934860Y-85656057D01*
X146029600Y-85179769D01*
X146029600Y-84820231D01*
X145934860Y-84343943D01*
X145759167Y-84081000D01*
X149152936Y-84081000D01*
X149152936Y-86016000D01*
X149182506Y-86164659D01*
X149266714Y-86290686D01*
X149392741Y-86374894D01*
X149541400Y-86404464D01*
X151268600Y-86404464D01*
X151417259Y-86374894D01*
X151543286Y-86290686D01*
X151627494Y-86164659D01*
X151657064Y-86016000D01*
X151657064Y-84081000D01*
X151970833Y-84081000D01*
X151795140Y-84343943D01*
X151700400Y-84820231D01*
X151700400Y-85179769D01*
X151795140Y-85656057D01*
X152064935Y-86059834D01*
X152468712Y-86329629D01*
X152945000Y-86424369D01*
X153421288Y-86329629D01*
X153825065Y-86059834D01*
X154094860Y-85656057D01*
X154189600Y-85179769D01*
X154189600Y-84820231D01*
X154094860Y-84343943D01*
X153919167Y-84081000D01*
X154510833Y-84081000D01*
X154335140Y-84343943D01*
X154240400Y-84820231D01*
X154240400Y-85179769D01*
X154335140Y-85656057D01*
X154604935Y-86059834D01*
X155008712Y-86329629D01*
X155485000Y-86424369D01*
X155961288Y-86329629D01*
X156365065Y-86059834D01*
X156634860Y-85656057D01*
X156729600Y-85179769D01*
X156729600Y-84820231D01*
X156634860Y-84343943D01*
X156459167Y-84081000D01*
X157050833Y-84081000D01*
X156875140Y-84343943D01*
X156780400Y-84820231D01*
X156780400Y-85179769D01*
X156875140Y-85656057D01*
X157144935Y-86059834D01*
X157548712Y-86329629D01*
X158025000Y-86424369D01*
X158501288Y-86329629D01*
X158905065Y-86059834D01*
X159174860Y-85656057D01*
X159269600Y-85179769D01*
X159269600Y-84820231D01*
X159174860Y-84343943D01*
X158999167Y-84081000D01*
X162675536Y-84081000D01*
X162675536Y-84763600D01*
X162705106Y-84912259D01*
X162789314Y-85038286D01*
X162915341Y-85122494D01*
X163064000Y-85152064D01*
X165096000Y-85152064D01*
X165244659Y-85122494D01*
X165370686Y-85038286D01*
X165454894Y-84912259D01*
X165484464Y-84763600D01*
X165484464Y-83036400D01*
X165454894Y-82887741D01*
X165370686Y-82761714D01*
X165244659Y-82677506D01*
X165096000Y-82647936D01*
X163963641Y-82647936D01*
X163892744Y-82577039D01*
X163606927Y-82386062D01*
X163269783Y-82319000D01*
X130805318Y-82319000D01*
X130468173Y-82386062D01*
X130182357Y-82577039D01*
X129378706Y-83380690D01*
X129378706Y-81332706D01*
X129311644Y-80995562D01*
X129120667Y-80709745D01*
X125770157Y-77359235D01*
X125773983Y-77340000D01*
X125679243Y-76863712D01*
X125409448Y-76459935D01*
X125005671Y-76190140D01*
X124529383Y-76095400D01*
X124480617Y-76095400D01*
X124004329Y-76190140D01*
X123600552Y-76459935D01*
X123330757Y-76863712D01*
X123236017Y-77340000D01*
X123330757Y-77816288D01*
X123600552Y-78220065D01*
X124004329Y-78489860D01*
X124480617Y-78584600D01*
X124503678Y-78584600D01*
X124560709Y-78641631D01*
X124529383Y-78635400D01*
X124480617Y-78635400D01*
X124004329Y-78730140D01*
X123600552Y-78999935D01*
X123330757Y-79403712D01*
X123236017Y-79880000D01*
X123330757Y-80356288D01*
X123600552Y-80760065D01*
X124004329Y-81029860D01*
X124480617Y-81124600D01*
X124529383Y-81124600D01*
X124861817Y-81058475D01*
X125210031Y-81406689D01*
X125005671Y-81270140D01*
X124529383Y-81175400D01*
X124480617Y-81175400D01*
X124004329Y-81270140D01*
X123600552Y-81539935D01*
X123330757Y-81943712D01*
X123236017Y-82420000D01*
X123330757Y-82896288D01*
X123600552Y-83300065D01*
X124004329Y-83569860D01*
X124480617Y-83664600D01*
X124529383Y-83664600D01*
X124861817Y-83598475D01*
X125210031Y-83946689D01*
X125005671Y-83810140D01*
X124529383Y-83715400D01*
X124480617Y-83715400D01*
X124004329Y-83810140D01*
X123600552Y-84079935D01*
X123330757Y-84483712D01*
X123236017Y-84960000D01*
X123330757Y-85436288D01*
X123600552Y-85840065D01*
X124004329Y-86109860D01*
X124480617Y-86204600D01*
X124529383Y-86204600D01*
X124861817Y-86138475D01*
X125210031Y-86486689D01*
X125005671Y-86350140D01*
X124529383Y-86255400D01*
X124480617Y-86255400D01*
X124004329Y-86350140D01*
X123600552Y-86619935D01*
X123330757Y-87023712D01*
X123236017Y-87500000D01*
X123330757Y-87976288D01*
X123543045Y-88294000D01*
X123205000Y-88294000D01*
X123011362Y-88332517D01*
X122847204Y-88442204D01*
X122410285Y-88879123D01*
X121989383Y-88795400D01*
X121940617Y-88795400D01*
X121464329Y-88890140D01*
X121205671Y-89062970D01*
X121205671Y-88477030D01*
X121464329Y-88649860D01*
X121940617Y-88744600D01*
X121989383Y-88744600D01*
X122465671Y-88649860D01*
X122869448Y-88380065D01*
X123139243Y-87976288D01*
X123233983Y-87500000D01*
X123139243Y-87023712D01*
X122869448Y-86619935D01*
X122465671Y-86350140D01*
X121989383Y-86255400D01*
X121940617Y-86255400D01*
X121464329Y-86350140D01*
X121205671Y-86522970D01*
X121205671Y-85937030D01*
X121464329Y-86109860D01*
X121940617Y-86204600D01*
X121989383Y-86204600D01*
X122465671Y-86109860D01*
X122869448Y-85840065D01*
X123139243Y-85436288D01*
X123233983Y-84960000D01*
X123139243Y-84483712D01*
X122869448Y-84079935D01*
X122465671Y-83810140D01*
X121989383Y-83715400D01*
X121940617Y-83715400D01*
X121464329Y-83810140D01*
X121205671Y-83982970D01*
X121205671Y-83397030D01*
X121464329Y-83569860D01*
X121940617Y-83664600D01*
X121989383Y-83664600D01*
X122465671Y-83569860D01*
X122869448Y-83300065D01*
X123139243Y-82896288D01*
X123233983Y-82420000D01*
X123139243Y-81943712D01*
X122869448Y-81539935D01*
X122465671Y-81270140D01*
X121989383Y-81175400D01*
X121940617Y-81175400D01*
X121464329Y-81270140D01*
X121205671Y-81442970D01*
X121205671Y-81354921D01*
X121519715Y-81040877D01*
X121940617Y-81124600D01*
X121989383Y-81124600D01*
X122465671Y-81029860D01*
X122869448Y-80760065D01*
X123139243Y-80356288D01*
X123233983Y-79880000D01*
X123139243Y-79403712D01*
X122869448Y-78999935D01*
X122465671Y-78730140D01*
X121989383Y-78635400D01*
X121940617Y-78635400D01*
X121464329Y-78730140D01*
X121060552Y-78999935D01*
X120790757Y-79403712D01*
X120696017Y-79880000D01*
X120787831Y-80341577D01*
X120341875Y-80787533D01*
X120232188Y-80951691D01*
X120193671Y-81145329D01*
X117921000Y-81145329D01*
X117921000Y-77340000D01*
X120696017Y-77340000D01*
X120790757Y-77816288D01*
X121060552Y-78220065D01*
X121464329Y-78489860D01*
X121940617Y-78584600D01*
X121989383Y-78584600D01*
X122465671Y-78489860D01*
X122869448Y-78220065D01*
X123139243Y-77816288D01*
X123233983Y-77340000D01*
X123139243Y-76863712D01*
X122869448Y-76459935D01*
X122465671Y-76190140D01*
X121989383Y-76095400D01*
X121940617Y-76095400D01*
X121464329Y-76190140D01*
X121060552Y-76459935D01*
X120790757Y-76863712D01*
X120696017Y-77340000D01*
X117921000Y-77340000D01*
X117921000Y-75306000D01*
X164535089Y-75306000D01*
X164853000Y-75369236D01*
M02*
