M48
;DRILL file {KiCad (2016-12-15 revision b13c7e4)-master} date Mon Mar 13 10:32:01 2017
;FORMAT={-:-/ absolute / inch / decimal}
FMAT,2
INCH,TZ
T1C0.016
T2C0.040
T3C0.126
%
G90
G05
M72
T1
X4.7212Y-3.5945
X5.0846Y-3.8996
X5.315Y-3.6024
X5.3248Y-3.8925
X5.9344Y-3.6622
X6.0724Y-3.613
X6.21Y-3.6622
T2
X4.8018Y-3.0449
X4.8018Y-3.1449
X4.8018Y-3.2449
X4.8018Y-3.3449
X4.8018Y-3.4449
X4.8018Y-3.5449
X4.8018Y-3.6449
X4.8018Y-3.7449
X4.8018Y-3.8449
X4.8018Y-3.9449
X4.9018Y-3.0449
X4.9018Y-3.1449
X4.9018Y-3.2449
X4.9018Y-3.3449
X4.9018Y-3.4449
X4.9018Y-3.5449
X4.9018Y-3.6449
X4.9018Y-3.7449
X4.9018Y-3.8449
X4.9018Y-3.9449
X5.0789Y-3.3465
X5.1789Y-3.3465
X5.4002Y-3.3465
X5.5002Y-3.3465
X5.6002Y-3.3465
X5.6002Y-3.9016
X5.7002Y-3.3465
X5.7002Y-3.9016
X5.9215Y-3.3465
X6.0215Y-3.3465
X6.1215Y-3.3465
X6.1215Y-3.9016
X6.2215Y-3.3465
X6.2215Y-3.9016
X6.4598Y-3.3031
X6.4598Y-3.4031
X6.4598Y-3.5031
X6.4598Y-3.6031
X6.4598Y-3.7031
X6.4598Y-3.8031
X6.4598Y-3.9031
X6.4598Y-4.0031
X6.4598Y-4.1031
X6.4598Y-4.2031
T3
X4.7821Y-4.1437
X5.689Y-3.5827
X6.4795Y-3.1043
T0
M30
