G04 #@! TF.GenerationSoftware,KiCad,Pcbnew,(2016-12-15 revision b13c7e4)-master*
G04 #@! TF.CreationDate,2017-03-13T10:32:04-06:00*
G04 #@! TF.ProjectId,ToolHead_PCB,546F6F6C486561645F5043422E6B6963,0.7*
G04 #@! TF.FileFunction,Copper,L1,Top,Signal*
G04 #@! TF.FilePolarity,Positive*
%FSLAX46Y46*%
G04 Gerber Fmt 4.6, Leading zero omitted, Abs format (unit mm)*
G04 Created by KiCad (PCBNEW (2016-12-15 revision b13c7e4)-master) date Mon Mar 13 10:32:04 2017*
%MOMM*%
%LPD*%
G01*
G04 APERTURE LIST*
%ADD10C,0.100000*%
%ADD11O,2.032000X1.727200*%
%ADD12R,2.032000X1.727200*%
%ADD13R,2.032000X2.032000*%
%ADD14O,2.032000X2.032000*%
%ADD15C,6.200000*%
%ADD16R,1.727200X1.727200*%
%ADD17O,1.727200X1.727200*%
%ADD18O,1.727200X2.032000*%
%ADD19R,1.727200X2.032000*%
%ADD20R,3.000000X6.000000*%
%ADD21R,0.750000X1.200000*%
%ADD22O,0.609600X1.473200*%
%ADD23R,1.060000X0.650000*%
%ADD24R,1.200000X0.750000*%
%ADD25R,0.800000X0.500000*%
%ADD26R,1.200000X0.900000*%
%ADD27R,0.800000X0.750000*%
%ADD28C,0.800000*%
%ADD29C,0.500000*%
%ADD30C,0.250000*%
%ADD31C,0.254000*%
G04 APERTURE END LIST*
D10*
D11*
X164080000Y-106760000D03*
X164080000Y-104220000D03*
X164080000Y-101680000D03*
X164080000Y-99140000D03*
X164080000Y-96600000D03*
X164080000Y-94060000D03*
X164080000Y-91520000D03*
X164080000Y-88980000D03*
X164080000Y-86440000D03*
D12*
X164080000Y-83900000D03*
D13*
X129005000Y-85000000D03*
D14*
X131545000Y-85000000D03*
D15*
X144500000Y-91000000D03*
D16*
X124505000Y-100200000D03*
D17*
X121965000Y-100200000D03*
X124505000Y-97660000D03*
X121965000Y-97660000D03*
X124505000Y-95120000D03*
X121965000Y-95120000D03*
X124505000Y-92580000D03*
X121965000Y-92580000D03*
X124505000Y-90040000D03*
X121965000Y-90040000D03*
X124505000Y-87500000D03*
X121965000Y-87500000D03*
X124505000Y-84960000D03*
X121965000Y-84960000D03*
X124505000Y-82420000D03*
X121965000Y-82420000D03*
X124505000Y-79880000D03*
X121965000Y-79880000D03*
X124505000Y-77340000D03*
X121965000Y-77340000D03*
D15*
X121465000Y-105250000D03*
X164580000Y-78850000D03*
D18*
X158025000Y-85000000D03*
X155485000Y-85000000D03*
X152945000Y-85000000D03*
D19*
X150405000Y-85000000D03*
D20*
X135000000Y-103550000D03*
X129000000Y-103550000D03*
D21*
X127500000Y-91300000D03*
X127500000Y-89400000D03*
D19*
X137165000Y-85000000D03*
D18*
X139705000Y-85000000D03*
X142245000Y-85000000D03*
X144785000Y-85000000D03*
D14*
X155485000Y-99100000D03*
D13*
X158025000Y-99100000D03*
D14*
X142245000Y-99100000D03*
D13*
X144785000Y-99100000D03*
D22*
X130095000Y-88706000D03*
X131365000Y-88706000D03*
X132635000Y-88706000D03*
X133905000Y-88706000D03*
X133905000Y-94294000D03*
X132635000Y-94294000D03*
X131365000Y-94294000D03*
X130095000Y-94294000D03*
D23*
X138600000Y-91500000D03*
X138600000Y-90550000D03*
X138600000Y-92450000D03*
X136400000Y-92450000D03*
X136400000Y-91500000D03*
X136400000Y-90550000D03*
D21*
X127600000Y-99050000D03*
X127600000Y-97150000D03*
D24*
X135250000Y-96900000D03*
X137150000Y-96900000D03*
X131050000Y-96900000D03*
X132950000Y-96900000D03*
D25*
X150835000Y-89770000D03*
X152835000Y-89770000D03*
X155635000Y-89770000D03*
X157635000Y-89770000D03*
D26*
X157735000Y-91770000D03*
X155535000Y-91770000D03*
X150735000Y-91770000D03*
X152935000Y-91770000D03*
X152935000Y-87770000D03*
X150735000Y-87770000D03*
X157735000Y-87770000D03*
X155535000Y-87770000D03*
D27*
X126450000Y-94000000D03*
X127950000Y-94000000D03*
D28*
X135000000Y-91500000D03*
X150735000Y-93020000D03*
X157735000Y-93020000D03*
X119919491Y-91300000D03*
X129150000Y-99050000D03*
X154240000Y-91770000D03*
X135250000Y-98870000D03*
D29*
X130095000Y-94294000D02*
X130095000Y-94064738D01*
D30*
X130095000Y-94294000D02*
X130095000Y-93905000D01*
X130095000Y-94294000D02*
X130095000Y-93862200D01*
X131050000Y-96900000D02*
X131050000Y-99350000D01*
X129000000Y-103550000D02*
X129000000Y-102050000D01*
X129000000Y-102050000D02*
X131050000Y-100000000D01*
X131050000Y-100000000D02*
X131050000Y-99350000D01*
X131365000Y-94294000D02*
X131365000Y-96585000D01*
X131365000Y-96585000D02*
X131050000Y-96900000D01*
X132950000Y-96900000D02*
X132950000Y-99850000D01*
X135000000Y-103550000D02*
X135000000Y-102050000D01*
X132950000Y-100000000D02*
X132950000Y-99850000D01*
X135000000Y-102050000D02*
X132950000Y-100000000D01*
X132635000Y-94294000D02*
X132635000Y-96585000D01*
X132635000Y-96585000D02*
X132950000Y-96900000D01*
X152945000Y-85000000D02*
X152945000Y-85560000D01*
X152945000Y-85560000D02*
X150735000Y-87770000D01*
X150835000Y-89770000D02*
X150835000Y-87870000D01*
X150735000Y-91770000D02*
X150735000Y-93020000D01*
X150735000Y-93015000D02*
X150740000Y-93020000D01*
X152835000Y-89770000D02*
X152685000Y-89770000D01*
X152685000Y-89770000D02*
X150735000Y-91720000D01*
X150735000Y-91720000D02*
X150735000Y-91770000D01*
X152815000Y-89760000D02*
X152715000Y-89760000D01*
X152845000Y-89710000D02*
X152745000Y-89710000D01*
X157735000Y-93020000D02*
X157735000Y-91770000D01*
X157735000Y-93015000D02*
X157730000Y-93020000D01*
X157788853Y-91716147D02*
X157735000Y-91770000D01*
X155635000Y-89770000D02*
X155785000Y-89770000D01*
X155785000Y-89770000D02*
X157735000Y-91720000D01*
X157735000Y-91720000D02*
X157735000Y-91770000D01*
X155615000Y-89760000D02*
X155715000Y-89760000D01*
X155595000Y-89710000D02*
X155695000Y-89710000D01*
X155485000Y-85000000D02*
X155485000Y-85520000D01*
X155485000Y-85520000D02*
X157735000Y-87770000D01*
X157635000Y-89770000D02*
X157635000Y-87870000D01*
X127950000Y-93777178D02*
X129727189Y-91999989D01*
X131042811Y-91999989D02*
X133905000Y-89137800D01*
X129727189Y-91999989D02*
X131042811Y-91999989D01*
X127950000Y-94000000D02*
X127950000Y-93777178D01*
X127850000Y-94000000D02*
X127875000Y-94000000D01*
X133905000Y-89137800D02*
X133905000Y-88706000D01*
X136400000Y-90550000D02*
X135317200Y-90550000D01*
X135317200Y-90550000D02*
X133905000Y-89137800D01*
X133905000Y-88706000D02*
X133956000Y-88706000D01*
X133905000Y-89260000D02*
X133905000Y-88706000D01*
X133905000Y-88706000D02*
X133905000Y-89055000D01*
X133905000Y-88995000D02*
X133905000Y-88706000D01*
X121965000Y-97660000D02*
X123205000Y-98900000D01*
X139500000Y-92990002D02*
X139500000Y-91620000D01*
X123205000Y-98900000D02*
X125024130Y-98900000D01*
X139340002Y-93150000D02*
X139500000Y-92990002D01*
X125024130Y-98900000D02*
X126550000Y-97374130D01*
X126550000Y-97374130D02*
X126550000Y-96251410D01*
X126550000Y-96251410D02*
X127551399Y-95250011D01*
X127551399Y-95250011D02*
X128786400Y-95250011D01*
X128786400Y-95250011D02*
X129300000Y-94736411D01*
X129300000Y-94736411D02*
X129300000Y-93700000D01*
X129300000Y-93700000D02*
X129850000Y-93150000D01*
X129850000Y-93150000D02*
X139340002Y-93150000D01*
X139500000Y-91620000D02*
X139380000Y-91500000D01*
X139380000Y-91500000D02*
X138600000Y-91500000D01*
X127940767Y-93150000D02*
X129540789Y-91549978D01*
X121965000Y-95120000D02*
X123185000Y-93900000D01*
X123185000Y-93900000D02*
X125000000Y-93900000D01*
X132635000Y-89137800D02*
X132635000Y-88706000D01*
X125000000Y-93900000D02*
X125750000Y-93150000D01*
X125750000Y-93150000D02*
X127940767Y-93150000D01*
X129540789Y-91549978D02*
X130222822Y-91549978D01*
X130222822Y-91549978D02*
X132635000Y-89137800D01*
X125368599Y-96796401D02*
X124505000Y-97660000D01*
X127365000Y-94800000D02*
X125368599Y-96796401D01*
X129913589Y-92450000D02*
X128849989Y-93513600D01*
X136400000Y-92450000D02*
X129913589Y-92450000D01*
X128600000Y-94800000D02*
X127365000Y-94800000D01*
X128849989Y-93513600D02*
X128849989Y-94550011D01*
X128849989Y-94550011D02*
X128600000Y-94800000D01*
X136450000Y-92450000D02*
X136400000Y-92450000D01*
X127874357Y-92580000D02*
X130904357Y-89550000D01*
X130904357Y-89550000D02*
X131100000Y-89354357D01*
X131365000Y-88706000D02*
X131365000Y-89089357D01*
X131365000Y-89089357D02*
X130904357Y-89550000D01*
X127874357Y-92580000D02*
X127400000Y-92580000D01*
X131365000Y-88706000D02*
X131365000Y-89137800D01*
X127621988Y-92580000D02*
X127400000Y-92580000D01*
X127400000Y-92580000D02*
X124500000Y-92580000D01*
X138600000Y-92450000D02*
X138109998Y-92450000D01*
X138109998Y-92450000D02*
X137500167Y-91840169D01*
X137500167Y-91840169D02*
X137500167Y-90173169D01*
X137500167Y-90173169D02*
X134926998Y-87600000D01*
X134926998Y-87600000D02*
X132000000Y-87600000D01*
X132000000Y-87600000D02*
X131365000Y-88235000D01*
X131365000Y-88235000D02*
X131365000Y-88706000D01*
X131365000Y-88706000D02*
X131365000Y-88855895D01*
X138600000Y-92450000D02*
X138425000Y-92450000D01*
X131365000Y-88274200D02*
X131365000Y-88706000D01*
X135250000Y-96900000D02*
X135350000Y-96900000D01*
X135350000Y-96900000D02*
X138593474Y-93656526D01*
X138593474Y-93656526D02*
X139469886Y-93656526D01*
X139469886Y-93656526D02*
X139950010Y-93176402D01*
X139950010Y-93176402D02*
X139950010Y-91120010D01*
X139950010Y-91120010D02*
X139380000Y-90550000D01*
X139380000Y-90550000D02*
X138600000Y-90550000D01*
X135250000Y-96900000D02*
X135250000Y-98870000D01*
X127500000Y-91300000D02*
X119919491Y-91300000D01*
X127600000Y-99050000D02*
X129150000Y-99050000D01*
X152935000Y-91770000D02*
X154240000Y-91770000D01*
X155535000Y-91770000D02*
X154240000Y-91770000D01*
X133905000Y-94294000D02*
X133905000Y-95555000D01*
X133905000Y-95555000D02*
X135250000Y-96900000D01*
X155485000Y-99100000D02*
X149701870Y-93316870D01*
X149701870Y-93316870D02*
X149701870Y-85703130D01*
X149701870Y-85703130D02*
X150405000Y-85000000D01*
X150405000Y-85000000D02*
X150405000Y-84847600D01*
X150405000Y-84847600D02*
X151652600Y-83600000D01*
X151652600Y-83600000D02*
X153500000Y-83600000D01*
X153500000Y-83600000D02*
X154235000Y-84335000D01*
X154235000Y-84335000D02*
X154235000Y-87770000D01*
X124500000Y-99960000D02*
X124540000Y-99960000D01*
X154235000Y-87770000D02*
X155535000Y-87770000D01*
X152935000Y-87770000D02*
X154235000Y-87770000D01*
X124505000Y-95120000D02*
X125230000Y-95120000D01*
X125230000Y-95120000D02*
X126350000Y-94000000D01*
D31*
G36*
X165932812Y-75584024D02*
X167079669Y-76350331D01*
X167845976Y-77497188D01*
X168124000Y-78894911D01*
X168124000Y-108794000D01*
X121509911Y-108794000D01*
X120112188Y-108515976D01*
X118965331Y-107749669D01*
X118199024Y-106602812D01*
X117921000Y-105205089D01*
X117921000Y-100200000D01*
X120696017Y-100200000D01*
X120790757Y-100676288D01*
X121060552Y-101080065D01*
X121464329Y-101349860D01*
X121940617Y-101444600D01*
X121989383Y-101444600D01*
X122465671Y-101349860D01*
X122869448Y-101080065D01*
X123139243Y-100676288D01*
X123233983Y-100200000D01*
X123139243Y-99723712D01*
X122869448Y-99319935D01*
X122465671Y-99050140D01*
X121989383Y-98955400D01*
X121940617Y-98955400D01*
X121464329Y-99050140D01*
X121060552Y-99319935D01*
X120790757Y-99723712D01*
X120696017Y-100200000D01*
X117921000Y-100200000D01*
X117921000Y-91454669D01*
X119138355Y-91454669D01*
X119257005Y-91741823D01*
X119476512Y-91961714D01*
X119763459Y-92080864D01*
X120074160Y-92081136D01*
X120361314Y-91962486D01*
X120518074Y-91806000D01*
X120989682Y-91806000D01*
X120790757Y-92103712D01*
X120696017Y-92580000D01*
X120790757Y-93056288D01*
X121060552Y-93460065D01*
X121464329Y-93729860D01*
X121940617Y-93824600D01*
X121989383Y-93824600D01*
X122465671Y-93729860D01*
X122869448Y-93460065D01*
X123139243Y-93056288D01*
X123233983Y-92580000D01*
X123139243Y-92103712D01*
X122940318Y-91806000D01*
X123529682Y-91806000D01*
X123330757Y-92103712D01*
X123236017Y-92580000D01*
X123330757Y-93056288D01*
X123556409Y-93394000D01*
X123185000Y-93394000D01*
X122991362Y-93432517D01*
X122870013Y-93513600D01*
X122827204Y-93542204D01*
X122410285Y-93959123D01*
X121989383Y-93875400D01*
X121940617Y-93875400D01*
X121464329Y-93970140D01*
X121060552Y-94239935D01*
X120790757Y-94643712D01*
X120696017Y-95120000D01*
X120790757Y-95596288D01*
X121060552Y-96000065D01*
X121464329Y-96269860D01*
X121940617Y-96364600D01*
X121989383Y-96364600D01*
X122465671Y-96269860D01*
X122869448Y-96000065D01*
X123139243Y-95596288D01*
X123233983Y-95120000D01*
X123142169Y-94658423D01*
X123394592Y-94406000D01*
X123489591Y-94406000D01*
X123330757Y-94643712D01*
X123236017Y-95120000D01*
X123330757Y-95596288D01*
X123600552Y-96000065D01*
X124004329Y-96269860D01*
X124480617Y-96364600D01*
X124529383Y-96364600D01*
X125005671Y-96269860D01*
X125409448Y-96000065D01*
X125679243Y-95596288D01*
X125731372Y-95334220D01*
X126302128Y-94763464D01*
X126685944Y-94763464D01*
X124950285Y-96499123D01*
X124529383Y-96415400D01*
X124480617Y-96415400D01*
X124004329Y-96510140D01*
X123600552Y-96779935D01*
X123330757Y-97183712D01*
X123236017Y-97660000D01*
X123330757Y-98136288D01*
X123502955Y-98394000D01*
X123414592Y-98394000D01*
X123142169Y-98121577D01*
X123233983Y-97660000D01*
X123139243Y-97183712D01*
X122869448Y-96779935D01*
X122465671Y-96510140D01*
X121989383Y-96415400D01*
X121940617Y-96415400D01*
X121464329Y-96510140D01*
X121060552Y-96779935D01*
X120790757Y-97183712D01*
X120696017Y-97660000D01*
X120790757Y-98136288D01*
X121060552Y-98540065D01*
X121464329Y-98809860D01*
X121940617Y-98904600D01*
X121989383Y-98904600D01*
X122410285Y-98820877D01*
X122847204Y-99257796D01*
X123011362Y-99367483D01*
X123205000Y-99406000D01*
X123252936Y-99406000D01*
X123252936Y-101063600D01*
X123282506Y-101212259D01*
X123366714Y-101338286D01*
X123492741Y-101422494D01*
X123641400Y-101452064D01*
X125368600Y-101452064D01*
X125517259Y-101422494D01*
X125643286Y-101338286D01*
X125727494Y-101212259D01*
X125757064Y-101063600D01*
X125757064Y-99336400D01*
X125727494Y-99187741D01*
X125643286Y-99061714D01*
X125604155Y-99035567D01*
X126189722Y-98450000D01*
X126836536Y-98450000D01*
X126836536Y-99650000D01*
X126866106Y-99798659D01*
X126950314Y-99924686D01*
X127076341Y-100008894D01*
X127225000Y-100038464D01*
X127975000Y-100038464D01*
X128123659Y-100008894D01*
X128249686Y-99924686D01*
X128333894Y-99798659D01*
X128363464Y-99650000D01*
X128363464Y-99556000D01*
X128551579Y-99556000D01*
X128707021Y-99711714D01*
X128993968Y-99830864D01*
X129304669Y-99831136D01*
X129591823Y-99712486D01*
X129811714Y-99492979D01*
X129930864Y-99206032D01*
X129931136Y-98895331D01*
X129812486Y-98608177D01*
X129592979Y-98388286D01*
X129306032Y-98269136D01*
X128995331Y-98268864D01*
X128708177Y-98387514D01*
X128551417Y-98544000D01*
X128363464Y-98544000D01*
X128363464Y-98450000D01*
X128333894Y-98301341D01*
X128249686Y-98175314D01*
X128123659Y-98091106D01*
X127975000Y-98061536D01*
X127225000Y-98061536D01*
X127076341Y-98091106D01*
X126950314Y-98175314D01*
X126866106Y-98301341D01*
X126836536Y-98450000D01*
X126189722Y-98450000D01*
X126907796Y-97731926D01*
X126914000Y-97722641D01*
X126914000Y-97811862D01*
X126961347Y-97926168D01*
X127048833Y-98013653D01*
X127163138Y-98061000D01*
X127458750Y-98061000D01*
X127536500Y-97983250D01*
X127536500Y-97213500D01*
X127663500Y-97213500D01*
X127663500Y-97983250D01*
X127741250Y-98061000D01*
X128036862Y-98061000D01*
X128151167Y-98013653D01*
X128238653Y-97926168D01*
X128286000Y-97811862D01*
X128286000Y-97291250D01*
X128208250Y-97213500D01*
X127663500Y-97213500D01*
X127536500Y-97213500D01*
X127516500Y-97213500D01*
X127516500Y-97086500D01*
X127536500Y-97086500D01*
X127536500Y-96316750D01*
X127663500Y-96316750D01*
X127663500Y-97086500D01*
X128208250Y-97086500D01*
X128286000Y-97008750D01*
X128286000Y-96488138D01*
X128238653Y-96373832D01*
X128151167Y-96286347D01*
X128036862Y-96239000D01*
X127741250Y-96239000D01*
X127663500Y-96316750D01*
X127536500Y-96316750D01*
X127458750Y-96239000D01*
X127278002Y-96239000D01*
X127760991Y-95756011D01*
X128786400Y-95756011D01*
X128980038Y-95717494D01*
X129144196Y-95607807D01*
X129654790Y-95097213D01*
X129727093Y-95183510D01*
X129941497Y-95289058D01*
X130031500Y-95235913D01*
X130031500Y-94357500D01*
X130158500Y-94357500D01*
X130158500Y-95235913D01*
X130248503Y-95289058D01*
X130462907Y-95183510D01*
X130610060Y-95007877D01*
X130678800Y-94789300D01*
X130678800Y-94357500D01*
X130158500Y-94357500D01*
X130031500Y-94357500D01*
X130011500Y-94357500D01*
X130011500Y-94230500D01*
X130031500Y-94230500D01*
X130031500Y-94210500D01*
X130158500Y-94210500D01*
X130158500Y-94230500D01*
X130678800Y-94230500D01*
X130678800Y-93798700D01*
X130633922Y-93656000D01*
X130715860Y-93656000D01*
X130679200Y-93840305D01*
X130679200Y-94747695D01*
X130731403Y-95010139D01*
X130859000Y-95201101D01*
X130859000Y-96136536D01*
X130450000Y-96136536D01*
X130301341Y-96166106D01*
X130175314Y-96250314D01*
X130091106Y-96376341D01*
X130061536Y-96525000D01*
X130061536Y-97275000D01*
X130091106Y-97423659D01*
X130175314Y-97549686D01*
X130301341Y-97633894D01*
X130450000Y-97663464D01*
X130544000Y-97663464D01*
X130544000Y-99790408D01*
X130172872Y-100161536D01*
X127500000Y-100161536D01*
X127351341Y-100191106D01*
X127225314Y-100275314D01*
X127141106Y-100401341D01*
X127111536Y-100550000D01*
X127111536Y-106550000D01*
X127141106Y-106698659D01*
X127225314Y-106824686D01*
X127351341Y-106908894D01*
X127500000Y-106938464D01*
X130500000Y-106938464D01*
X130648659Y-106908894D01*
X130774686Y-106824686D01*
X130858894Y-106698659D01*
X130888464Y-106550000D01*
X130888464Y-100877128D01*
X131407796Y-100357796D01*
X131517483Y-100193638D01*
X131556000Y-100000000D01*
X131556000Y-97663464D01*
X131650000Y-97663464D01*
X131798659Y-97633894D01*
X131924686Y-97549686D01*
X132000000Y-97436970D01*
X132075314Y-97549686D01*
X132201341Y-97633894D01*
X132350000Y-97663464D01*
X132444000Y-97663464D01*
X132444000Y-100000000D01*
X132482517Y-100193638D01*
X132592204Y-100357796D01*
X133111536Y-100877128D01*
X133111536Y-106550000D01*
X133141106Y-106698659D01*
X133225314Y-106824686D01*
X133351341Y-106908894D01*
X133500000Y-106938464D01*
X136500000Y-106938464D01*
X136648659Y-106908894D01*
X136774686Y-106824686D01*
X136817907Y-106760000D01*
X162655631Y-106760000D01*
X162750371Y-107236288D01*
X163020166Y-107640065D01*
X163423943Y-107909860D01*
X163900231Y-108004600D01*
X164259769Y-108004600D01*
X164736057Y-107909860D01*
X165139834Y-107640065D01*
X165409629Y-107236288D01*
X165504369Y-106760000D01*
X165409629Y-106283712D01*
X165139834Y-105879935D01*
X164736057Y-105610140D01*
X164259769Y-105515400D01*
X163900231Y-105515400D01*
X163423943Y-105610140D01*
X163020166Y-105879935D01*
X162750371Y-106283712D01*
X162655631Y-106760000D01*
X136817907Y-106760000D01*
X136858894Y-106698659D01*
X136888464Y-106550000D01*
X136888464Y-104477163D01*
X162709858Y-104477163D01*
X162753439Y-104637622D01*
X163002634Y-105055164D01*
X163392646Y-105345560D01*
X163864100Y-105464600D01*
X164016500Y-105464600D01*
X164016500Y-104283500D01*
X164143500Y-104283500D01*
X164143500Y-105464600D01*
X164295900Y-105464600D01*
X164767354Y-105345560D01*
X165157366Y-105055164D01*
X165406561Y-104637622D01*
X165450142Y-104477163D01*
X165379995Y-104283500D01*
X164143500Y-104283500D01*
X164016500Y-104283500D01*
X162780005Y-104283500D01*
X162709858Y-104477163D01*
X136888464Y-104477163D01*
X136888464Y-103962837D01*
X162709858Y-103962837D01*
X162780005Y-104156500D01*
X164016500Y-104156500D01*
X164016500Y-102975400D01*
X164143500Y-102975400D01*
X164143500Y-104156500D01*
X165379995Y-104156500D01*
X165450142Y-103962837D01*
X165406561Y-103802378D01*
X165157366Y-103384836D01*
X164767354Y-103094440D01*
X164295900Y-102975400D01*
X164143500Y-102975400D01*
X164016500Y-102975400D01*
X163864100Y-102975400D01*
X163392646Y-103094440D01*
X163002634Y-103384836D01*
X162753439Y-103802378D01*
X162709858Y-103962837D01*
X136888464Y-103962837D01*
X136888464Y-101680000D01*
X162655631Y-101680000D01*
X162750371Y-102156288D01*
X163020166Y-102560065D01*
X163423943Y-102829860D01*
X163900231Y-102924600D01*
X164259769Y-102924600D01*
X164736057Y-102829860D01*
X165139834Y-102560065D01*
X165409629Y-102156288D01*
X165504369Y-101680000D01*
X165409629Y-101203712D01*
X165139834Y-100799935D01*
X164736057Y-100530140D01*
X164259769Y-100435400D01*
X163900231Y-100435400D01*
X163423943Y-100530140D01*
X163020166Y-100799935D01*
X162750371Y-101203712D01*
X162655631Y-101680000D01*
X136888464Y-101680000D01*
X136888464Y-100550000D01*
X136858894Y-100401341D01*
X136774686Y-100275314D01*
X136648659Y-100191106D01*
X136500000Y-100161536D01*
X133827128Y-100161536D01*
X133456000Y-99790408D01*
X133456000Y-97663464D01*
X133550000Y-97663464D01*
X133698659Y-97633894D01*
X133824686Y-97549686D01*
X133908894Y-97423659D01*
X133938464Y-97275000D01*
X133938464Y-96525000D01*
X133908894Y-96376341D01*
X133824686Y-96250314D01*
X133698659Y-96166106D01*
X133550000Y-96136536D01*
X133141000Y-96136536D01*
X133141000Y-95201101D01*
X133268597Y-95010139D01*
X133270000Y-95003086D01*
X133271403Y-95010139D01*
X133399000Y-95201101D01*
X133399000Y-95555000D01*
X133437517Y-95748638D01*
X133547204Y-95912796D01*
X134261536Y-96627128D01*
X134261536Y-97275000D01*
X134291106Y-97423659D01*
X134375314Y-97549686D01*
X134501341Y-97633894D01*
X134650000Y-97663464D01*
X134744000Y-97663464D01*
X134744000Y-98271579D01*
X134588286Y-98427021D01*
X134469136Y-98713968D01*
X134468864Y-99024669D01*
X134587514Y-99311823D01*
X134807021Y-99531714D01*
X135093968Y-99650864D01*
X135404669Y-99651136D01*
X135691823Y-99532486D01*
X135911714Y-99312979D01*
X136011514Y-99072631D01*
X140848000Y-99072631D01*
X140848000Y-99127369D01*
X140954340Y-99661978D01*
X141257172Y-100115197D01*
X141710391Y-100418029D01*
X142245000Y-100524369D01*
X142779609Y-100418029D01*
X143232828Y-100115197D01*
X143388000Y-99882966D01*
X143388000Y-100191786D01*
X143446004Y-100331820D01*
X143553181Y-100438996D01*
X143693215Y-100497000D01*
X144626250Y-100497000D01*
X144721500Y-100401750D01*
X144721500Y-99163500D01*
X144848500Y-99163500D01*
X144848500Y-100401750D01*
X144943750Y-100497000D01*
X145876785Y-100497000D01*
X146016819Y-100438996D01*
X146123996Y-100331820D01*
X146182000Y-100191786D01*
X146182000Y-99258750D01*
X146086750Y-99163500D01*
X144848500Y-99163500D01*
X144721500Y-99163500D01*
X144701500Y-99163500D01*
X144701500Y-99036500D01*
X144721500Y-99036500D01*
X144721500Y-97798250D01*
X144848500Y-97798250D01*
X144848500Y-99036500D01*
X146086750Y-99036500D01*
X146182000Y-98941250D01*
X146182000Y-98008214D01*
X146123996Y-97868180D01*
X146016819Y-97761004D01*
X145876785Y-97703000D01*
X144943750Y-97703000D01*
X144848500Y-97798250D01*
X144721500Y-97798250D01*
X144626250Y-97703000D01*
X143693215Y-97703000D01*
X143553181Y-97761004D01*
X143446004Y-97868180D01*
X143388000Y-98008214D01*
X143388000Y-98317034D01*
X143232828Y-98084803D01*
X142779609Y-97781971D01*
X142245000Y-97675631D01*
X141710391Y-97781971D01*
X141257172Y-98084803D01*
X140954340Y-98538022D01*
X140848000Y-99072631D01*
X136011514Y-99072631D01*
X136030864Y-99026032D01*
X136031136Y-98715331D01*
X135912486Y-98428177D01*
X135756000Y-98271417D01*
X135756000Y-97663464D01*
X135850000Y-97663464D01*
X135998659Y-97633894D01*
X136124686Y-97549686D01*
X136202901Y-97432629D01*
X136227004Y-97490819D01*
X136334180Y-97597996D01*
X136474214Y-97656000D01*
X136991250Y-97656000D01*
X137086500Y-97560750D01*
X137086500Y-96963500D01*
X137213500Y-96963500D01*
X137213500Y-97560750D01*
X137308750Y-97656000D01*
X137825786Y-97656000D01*
X137965820Y-97597996D01*
X138072996Y-97490819D01*
X138131000Y-97350785D01*
X138131000Y-97058750D01*
X138035750Y-96963500D01*
X137213500Y-96963500D01*
X137086500Y-96963500D01*
X137066500Y-96963500D01*
X137066500Y-96836500D01*
X137086500Y-96836500D01*
X137086500Y-96239250D01*
X137213500Y-96239250D01*
X137213500Y-96836500D01*
X138035750Y-96836500D01*
X138131000Y-96741250D01*
X138131000Y-96449215D01*
X138072996Y-96309181D01*
X137965820Y-96202004D01*
X137825786Y-96144000D01*
X137308750Y-96144000D01*
X137213500Y-96239250D01*
X137086500Y-96239250D01*
X136991250Y-96144000D01*
X136821592Y-96144000D01*
X138803066Y-94162526D01*
X139469886Y-94162526D01*
X139663524Y-94124009D01*
X139827682Y-94014322D01*
X140307806Y-93534198D01*
X140417493Y-93370040D01*
X140456010Y-93176402D01*
X140456010Y-91120010D01*
X140417493Y-90926372D01*
X140307806Y-90762214D01*
X139737796Y-90192204D01*
X139573638Y-90082517D01*
X139480664Y-90064023D01*
X139404686Y-89950314D01*
X139278659Y-89866106D01*
X139130000Y-89836536D01*
X138070000Y-89836536D01*
X137921341Y-89866106D01*
X137900961Y-89879724D01*
X137857963Y-89815373D01*
X135284794Y-87242204D01*
X135120636Y-87132517D01*
X134926998Y-87094000D01*
X132000000Y-87094000D01*
X131806362Y-87132517D01*
X131748258Y-87171341D01*
X131642204Y-87242204D01*
X131306209Y-87578199D01*
X131102556Y-87618708D01*
X130880066Y-87767371D01*
X130731403Y-87989861D01*
X130730000Y-87996914D01*
X130728597Y-87989861D01*
X130579934Y-87767371D01*
X130357444Y-87618708D01*
X130095000Y-87566505D01*
X129832556Y-87618708D01*
X129610066Y-87767371D01*
X129461403Y-87989861D01*
X129409200Y-88252305D01*
X129409200Y-89159695D01*
X129461403Y-89422139D01*
X129610066Y-89644629D01*
X129832556Y-89793292D01*
X129926739Y-89812026D01*
X128263464Y-91475301D01*
X128263464Y-90700000D01*
X128233894Y-90551341D01*
X128149686Y-90425314D01*
X128032629Y-90347099D01*
X128090819Y-90322996D01*
X128197996Y-90215820D01*
X128256000Y-90075786D01*
X128256000Y-89558750D01*
X128160750Y-89463500D01*
X127563500Y-89463500D01*
X127563500Y-89483500D01*
X127436500Y-89483500D01*
X127436500Y-89463500D01*
X126839250Y-89463500D01*
X126744000Y-89558750D01*
X126744000Y-90075786D01*
X126802004Y-90215820D01*
X126909181Y-90322996D01*
X126967371Y-90347099D01*
X126850314Y-90425314D01*
X126766106Y-90551341D01*
X126736536Y-90700000D01*
X126736536Y-90794000D01*
X125493682Y-90794000D01*
X125679243Y-90516288D01*
X125773983Y-90040000D01*
X125679243Y-89563712D01*
X125409448Y-89159935D01*
X125005671Y-88890140D01*
X124529383Y-88795400D01*
X124480617Y-88795400D01*
X124004329Y-88890140D01*
X123600552Y-89159935D01*
X123330757Y-89563712D01*
X123236017Y-90040000D01*
X123330757Y-90516288D01*
X123516318Y-90794000D01*
X122953682Y-90794000D01*
X123139243Y-90516288D01*
X123233983Y-90040000D01*
X123139243Y-89563712D01*
X122869448Y-89159935D01*
X122465671Y-88890140D01*
X121989383Y-88795400D01*
X121940617Y-88795400D01*
X121464329Y-88890140D01*
X121060552Y-89159935D01*
X120790757Y-89563712D01*
X120696017Y-90040000D01*
X120790757Y-90516288D01*
X120976318Y-90794000D01*
X120517912Y-90794000D01*
X120362470Y-90638286D01*
X120075523Y-90519136D01*
X119764822Y-90518864D01*
X119477668Y-90637514D01*
X119257777Y-90857021D01*
X119138627Y-91143968D01*
X119138355Y-91454669D01*
X117921000Y-91454669D01*
X117921000Y-87500000D01*
X120696017Y-87500000D01*
X120790757Y-87976288D01*
X121060552Y-88380065D01*
X121464329Y-88649860D01*
X121940617Y-88744600D01*
X121989383Y-88744600D01*
X122465671Y-88649860D01*
X122869448Y-88380065D01*
X123139243Y-87976288D01*
X123233983Y-87500000D01*
X123236017Y-87500000D01*
X123330757Y-87976288D01*
X123600552Y-88380065D01*
X124004329Y-88649860D01*
X124480617Y-88744600D01*
X124529383Y-88744600D01*
X124631869Y-88724214D01*
X126744000Y-88724214D01*
X126744000Y-89241250D01*
X126839250Y-89336500D01*
X127436500Y-89336500D01*
X127436500Y-88514250D01*
X127563500Y-88514250D01*
X127563500Y-89336500D01*
X128160750Y-89336500D01*
X128256000Y-89241250D01*
X128256000Y-88724214D01*
X128197996Y-88584180D01*
X128090819Y-88477004D01*
X127950785Y-88419000D01*
X127658750Y-88419000D01*
X127563500Y-88514250D01*
X127436500Y-88514250D01*
X127341250Y-88419000D01*
X127049215Y-88419000D01*
X126909181Y-88477004D01*
X126802004Y-88584180D01*
X126744000Y-88724214D01*
X124631869Y-88724214D01*
X125005671Y-88649860D01*
X125409448Y-88380065D01*
X125679243Y-87976288D01*
X125773983Y-87500000D01*
X125679243Y-87023712D01*
X125409448Y-86619935D01*
X125005671Y-86350140D01*
X124529383Y-86255400D01*
X124480617Y-86255400D01*
X124004329Y-86350140D01*
X123600552Y-86619935D01*
X123330757Y-87023712D01*
X123236017Y-87500000D01*
X123233983Y-87500000D01*
X123139243Y-87023712D01*
X122869448Y-86619935D01*
X122465671Y-86350140D01*
X121989383Y-86255400D01*
X121940617Y-86255400D01*
X121464329Y-86350140D01*
X121060552Y-86619935D01*
X120790757Y-87023712D01*
X120696017Y-87500000D01*
X117921000Y-87500000D01*
X117921000Y-84960000D01*
X120696017Y-84960000D01*
X120790757Y-85436288D01*
X121060552Y-85840065D01*
X121464329Y-86109860D01*
X121940617Y-86204600D01*
X121989383Y-86204600D01*
X122465671Y-86109860D01*
X122869448Y-85840065D01*
X123139243Y-85436288D01*
X123233983Y-84960000D01*
X123236017Y-84960000D01*
X123330757Y-85436288D01*
X123600552Y-85840065D01*
X124004329Y-86109860D01*
X124480617Y-86204600D01*
X124529383Y-86204600D01*
X125005671Y-86109860D01*
X125409448Y-85840065D01*
X125679243Y-85436288D01*
X125773983Y-84960000D01*
X125679243Y-84483712D01*
X125409448Y-84079935D01*
X125265872Y-83984000D01*
X127600536Y-83984000D01*
X127600536Y-86016000D01*
X127630106Y-86164659D01*
X127714314Y-86290686D01*
X127840341Y-86374894D01*
X127989000Y-86404464D01*
X130021000Y-86404464D01*
X130169659Y-86374894D01*
X130295686Y-86290686D01*
X130379894Y-86164659D01*
X130409464Y-86016000D01*
X130409464Y-85803879D01*
X130422746Y-85831976D01*
X130826556Y-86198114D01*
X131205824Y-86355201D01*
X131422000Y-86295926D01*
X131422000Y-85123000D01*
X131668000Y-85123000D01*
X131668000Y-86295926D01*
X131884176Y-86355201D01*
X132263444Y-86198114D01*
X132667254Y-85831976D01*
X132900211Y-85339178D01*
X132841335Y-85123000D01*
X131668000Y-85123000D01*
X131422000Y-85123000D01*
X131402000Y-85123000D01*
X131402000Y-84877000D01*
X131422000Y-84877000D01*
X131422000Y-83704074D01*
X131668000Y-83704074D01*
X131668000Y-84877000D01*
X132841335Y-84877000D01*
X132900211Y-84660822D01*
X132667254Y-84168024D01*
X132464296Y-83984000D01*
X135912936Y-83984000D01*
X135912936Y-86016000D01*
X135942506Y-86164659D01*
X136026714Y-86290686D01*
X136152741Y-86374894D01*
X136301400Y-86404464D01*
X138028600Y-86404464D01*
X138177259Y-86374894D01*
X138303286Y-86290686D01*
X138387494Y-86164659D01*
X138417064Y-86016000D01*
X138417064Y-84820231D01*
X138460400Y-84820231D01*
X138460400Y-85179769D01*
X138555140Y-85656057D01*
X138824935Y-86059834D01*
X139228712Y-86329629D01*
X139705000Y-86424369D01*
X140181288Y-86329629D01*
X140585065Y-86059834D01*
X140854860Y-85656057D01*
X140949600Y-85179769D01*
X140949600Y-84820231D01*
X141000400Y-84820231D01*
X141000400Y-85179769D01*
X141095140Y-85656057D01*
X141364935Y-86059834D01*
X141768712Y-86329629D01*
X142245000Y-86424369D01*
X142721288Y-86329629D01*
X143125065Y-86059834D01*
X143394860Y-85656057D01*
X143489600Y-85179769D01*
X143489600Y-84820231D01*
X143540400Y-84820231D01*
X143540400Y-85179769D01*
X143635140Y-85656057D01*
X143904935Y-86059834D01*
X144308712Y-86329629D01*
X144785000Y-86424369D01*
X145261288Y-86329629D01*
X145665065Y-86059834D01*
X145934860Y-85656057D01*
X146029600Y-85179769D01*
X146029600Y-84820231D01*
X145934860Y-84343943D01*
X145694354Y-83984000D01*
X149152936Y-83984000D01*
X149152936Y-86016000D01*
X149182506Y-86164659D01*
X149195870Y-86184660D01*
X149195870Y-93316870D01*
X149234387Y-93510508D01*
X149344074Y-93674666D01*
X154199583Y-98530175D01*
X154194340Y-98538022D01*
X154088000Y-99072631D01*
X154088000Y-99127369D01*
X154194340Y-99661978D01*
X154497172Y-100115197D01*
X154950391Y-100418029D01*
X155485000Y-100524369D01*
X156019609Y-100418029D01*
X156472828Y-100115197D01*
X156628000Y-99882966D01*
X156628000Y-100191786D01*
X156686004Y-100331820D01*
X156793181Y-100438996D01*
X156933215Y-100497000D01*
X157866250Y-100497000D01*
X157961500Y-100401750D01*
X157961500Y-99163500D01*
X158088500Y-99163500D01*
X158088500Y-100401750D01*
X158183750Y-100497000D01*
X159116785Y-100497000D01*
X159256819Y-100438996D01*
X159363996Y-100331820D01*
X159422000Y-100191786D01*
X159422000Y-99258750D01*
X159326750Y-99163500D01*
X158088500Y-99163500D01*
X157961500Y-99163500D01*
X157941500Y-99163500D01*
X157941500Y-99140000D01*
X162655631Y-99140000D01*
X162750371Y-99616288D01*
X163020166Y-100020065D01*
X163423943Y-100289860D01*
X163900231Y-100384600D01*
X164259769Y-100384600D01*
X164736057Y-100289860D01*
X165139834Y-100020065D01*
X165409629Y-99616288D01*
X165504369Y-99140000D01*
X165409629Y-98663712D01*
X165139834Y-98259935D01*
X164736057Y-97990140D01*
X164259769Y-97895400D01*
X163900231Y-97895400D01*
X163423943Y-97990140D01*
X163020166Y-98259935D01*
X162750371Y-98663712D01*
X162655631Y-99140000D01*
X157941500Y-99140000D01*
X157941500Y-99036500D01*
X157961500Y-99036500D01*
X157961500Y-97798250D01*
X158088500Y-97798250D01*
X158088500Y-99036500D01*
X159326750Y-99036500D01*
X159422000Y-98941250D01*
X159422000Y-98008214D01*
X159363996Y-97868180D01*
X159256819Y-97761004D01*
X159116785Y-97703000D01*
X158183750Y-97703000D01*
X158088500Y-97798250D01*
X157961500Y-97798250D01*
X157866250Y-97703000D01*
X156933215Y-97703000D01*
X156793181Y-97761004D01*
X156686004Y-97868180D01*
X156628000Y-98008214D01*
X156628000Y-98317034D01*
X156472828Y-98084803D01*
X156019609Y-97781971D01*
X155485000Y-97675631D01*
X154950391Y-97781971D01*
X154909731Y-97809139D01*
X153700592Y-96600000D01*
X162655631Y-96600000D01*
X162750371Y-97076288D01*
X163020166Y-97480065D01*
X163423943Y-97749860D01*
X163900231Y-97844600D01*
X164259769Y-97844600D01*
X164736057Y-97749860D01*
X165139834Y-97480065D01*
X165409629Y-97076288D01*
X165504369Y-96600000D01*
X165409629Y-96123712D01*
X165139834Y-95719935D01*
X164736057Y-95450140D01*
X164259769Y-95355400D01*
X163900231Y-95355400D01*
X163423943Y-95450140D01*
X163020166Y-95719935D01*
X162750371Y-96123712D01*
X162655631Y-96600000D01*
X153700592Y-96600000D01*
X151160592Y-94060000D01*
X162655631Y-94060000D01*
X162750371Y-94536288D01*
X163020166Y-94940065D01*
X163423943Y-95209860D01*
X163900231Y-95304600D01*
X164259769Y-95304600D01*
X164736057Y-95209860D01*
X165139834Y-94940065D01*
X165409629Y-94536288D01*
X165504369Y-94060000D01*
X165409629Y-93583712D01*
X165139834Y-93179935D01*
X164736057Y-92910140D01*
X164259769Y-92815400D01*
X163900231Y-92815400D01*
X163423943Y-92910140D01*
X163020166Y-93179935D01*
X162750371Y-93583712D01*
X162655631Y-94060000D01*
X151160592Y-94060000D01*
X150898202Y-93797610D01*
X151176823Y-93682486D01*
X151396714Y-93462979D01*
X151515864Y-93176032D01*
X151516136Y-92865331D01*
X151404304Y-92594679D01*
X151483659Y-92578894D01*
X151609686Y-92494686D01*
X151693894Y-92368659D01*
X151723464Y-92220000D01*
X151723464Y-91447128D01*
X151970359Y-91200233D01*
X151946536Y-91320000D01*
X151946536Y-92220000D01*
X151976106Y-92368659D01*
X152060314Y-92494686D01*
X152186341Y-92578894D01*
X152335000Y-92608464D01*
X153535000Y-92608464D01*
X153683659Y-92578894D01*
X153809686Y-92494686D01*
X153839873Y-92449508D01*
X154083968Y-92550864D01*
X154394669Y-92551136D01*
X154632399Y-92452908D01*
X154660314Y-92494686D01*
X154786341Y-92578894D01*
X154935000Y-92608464D01*
X156135000Y-92608464D01*
X156283659Y-92578894D01*
X156409686Y-92494686D01*
X156493894Y-92368659D01*
X156523464Y-92220000D01*
X156523464Y-91320000D01*
X156499641Y-91200233D01*
X156746536Y-91447128D01*
X156746536Y-92220000D01*
X156776106Y-92368659D01*
X156860314Y-92494686D01*
X156986341Y-92578894D01*
X157065934Y-92594726D01*
X156954136Y-92863968D01*
X156953864Y-93174669D01*
X157072514Y-93461823D01*
X157292021Y-93681714D01*
X157578968Y-93800864D01*
X157889669Y-93801136D01*
X158176823Y-93682486D01*
X158396714Y-93462979D01*
X158515864Y-93176032D01*
X158516136Y-92865331D01*
X158404304Y-92594679D01*
X158483659Y-92578894D01*
X158609686Y-92494686D01*
X158693894Y-92368659D01*
X158723464Y-92220000D01*
X158723464Y-91520000D01*
X162655631Y-91520000D01*
X162750371Y-91996288D01*
X163020166Y-92400065D01*
X163423943Y-92669860D01*
X163900231Y-92764600D01*
X164259769Y-92764600D01*
X164736057Y-92669860D01*
X165139834Y-92400065D01*
X165409629Y-91996288D01*
X165504369Y-91520000D01*
X165409629Y-91043712D01*
X165139834Y-90639935D01*
X164736057Y-90370140D01*
X164259769Y-90275400D01*
X163900231Y-90275400D01*
X163423943Y-90370140D01*
X163020166Y-90639935D01*
X162750371Y-91043712D01*
X162655631Y-91520000D01*
X158723464Y-91520000D01*
X158723464Y-91320000D01*
X158693894Y-91171341D01*
X158609686Y-91045314D01*
X158483659Y-90961106D01*
X158335000Y-90931536D01*
X157662128Y-90931536D01*
X157115233Y-90384641D01*
X157235000Y-90408464D01*
X158035000Y-90408464D01*
X158183659Y-90378894D01*
X158309686Y-90294686D01*
X158393894Y-90168659D01*
X158423464Y-90020000D01*
X158423464Y-89520000D01*
X158393894Y-89371341D01*
X158309686Y-89245314D01*
X158183659Y-89161106D01*
X158141000Y-89152621D01*
X158141000Y-88980000D01*
X162655631Y-88980000D01*
X162750371Y-89456288D01*
X163020166Y-89860065D01*
X163423943Y-90129860D01*
X163900231Y-90224600D01*
X164259769Y-90224600D01*
X164736057Y-90129860D01*
X165139834Y-89860065D01*
X165409629Y-89456288D01*
X165504369Y-88980000D01*
X165409629Y-88503712D01*
X165139834Y-88099935D01*
X164736057Y-87830140D01*
X164259769Y-87735400D01*
X163900231Y-87735400D01*
X163423943Y-87830140D01*
X163020166Y-88099935D01*
X162750371Y-88503712D01*
X162655631Y-88980000D01*
X158141000Y-88980000D01*
X158141000Y-88608464D01*
X158335000Y-88608464D01*
X158483659Y-88578894D01*
X158609686Y-88494686D01*
X158693894Y-88368659D01*
X158723464Y-88220000D01*
X158723464Y-87320000D01*
X158693894Y-87171341D01*
X158609686Y-87045314D01*
X158483659Y-86961106D01*
X158335000Y-86931536D01*
X157612128Y-86931536D01*
X157120592Y-86440000D01*
X162655631Y-86440000D01*
X162750371Y-86916288D01*
X163020166Y-87320065D01*
X163423943Y-87589860D01*
X163900231Y-87684600D01*
X164259769Y-87684600D01*
X164736057Y-87589860D01*
X165139834Y-87320065D01*
X165409629Y-86916288D01*
X165504369Y-86440000D01*
X165409629Y-85963712D01*
X165139834Y-85559935D01*
X164736057Y-85290140D01*
X164259769Y-85195400D01*
X163900231Y-85195400D01*
X163423943Y-85290140D01*
X163020166Y-85559935D01*
X162750371Y-85963712D01*
X162655631Y-86440000D01*
X157120592Y-86440000D01*
X156515413Y-85834821D01*
X156634860Y-85656057D01*
X156729600Y-85179769D01*
X156729600Y-85063500D01*
X156780400Y-85063500D01*
X156780400Y-85215900D01*
X156899440Y-85687354D01*
X157189836Y-86077366D01*
X157607378Y-86326561D01*
X157767837Y-86370142D01*
X157961500Y-86299995D01*
X157961500Y-85063500D01*
X158088500Y-85063500D01*
X158088500Y-86299995D01*
X158282163Y-86370142D01*
X158442622Y-86326561D01*
X158860164Y-86077366D01*
X159150560Y-85687354D01*
X159269600Y-85215900D01*
X159269600Y-85063500D01*
X158088500Y-85063500D01*
X157961500Y-85063500D01*
X156780400Y-85063500D01*
X156729600Y-85063500D01*
X156729600Y-84820231D01*
X156722414Y-84784100D01*
X156780400Y-84784100D01*
X156780400Y-84936500D01*
X157961500Y-84936500D01*
X157961500Y-83700005D01*
X158088500Y-83700005D01*
X158088500Y-84936500D01*
X159269600Y-84936500D01*
X159269600Y-84784100D01*
X159150560Y-84312646D01*
X158860164Y-83922634D01*
X158442622Y-83673439D01*
X158282163Y-83629858D01*
X158088500Y-83700005D01*
X157961500Y-83700005D01*
X157767837Y-83629858D01*
X157607378Y-83673439D01*
X157189836Y-83922634D01*
X156899440Y-84312646D01*
X156780400Y-84784100D01*
X156722414Y-84784100D01*
X156634860Y-84343943D01*
X156365065Y-83940166D01*
X155961288Y-83670371D01*
X155485000Y-83575631D01*
X155008712Y-83670371D01*
X154604935Y-83940166D01*
X154585237Y-83969645D01*
X153857796Y-83242204D01*
X153693638Y-83132517D01*
X153500000Y-83094000D01*
X151652600Y-83094000D01*
X151458962Y-83132517D01*
X151294804Y-83242204D01*
X150941472Y-83595536D01*
X149541400Y-83595536D01*
X149392741Y-83625106D01*
X149266714Y-83709314D01*
X149182506Y-83835341D01*
X149152936Y-83984000D01*
X145694354Y-83984000D01*
X145665065Y-83940166D01*
X145261288Y-83670371D01*
X144785000Y-83575631D01*
X144308712Y-83670371D01*
X143904935Y-83940166D01*
X143635140Y-84343943D01*
X143540400Y-84820231D01*
X143489600Y-84820231D01*
X143394860Y-84343943D01*
X143125065Y-83940166D01*
X142721288Y-83670371D01*
X142245000Y-83575631D01*
X141768712Y-83670371D01*
X141364935Y-83940166D01*
X141095140Y-84343943D01*
X141000400Y-84820231D01*
X140949600Y-84820231D01*
X140854860Y-84343943D01*
X140585065Y-83940166D01*
X140181288Y-83670371D01*
X139705000Y-83575631D01*
X139228712Y-83670371D01*
X138824935Y-83940166D01*
X138555140Y-84343943D01*
X138460400Y-84820231D01*
X138417064Y-84820231D01*
X138417064Y-83984000D01*
X138387494Y-83835341D01*
X138303286Y-83709314D01*
X138177259Y-83625106D01*
X138028600Y-83595536D01*
X136301400Y-83595536D01*
X136152741Y-83625106D01*
X136026714Y-83709314D01*
X135942506Y-83835341D01*
X135912936Y-83984000D01*
X132464296Y-83984000D01*
X132263444Y-83801886D01*
X131884176Y-83644799D01*
X131668000Y-83704074D01*
X131422000Y-83704074D01*
X131205824Y-83644799D01*
X130826556Y-83801886D01*
X130422746Y-84168024D01*
X130409464Y-84196121D01*
X130409464Y-83984000D01*
X130379894Y-83835341D01*
X130295686Y-83709314D01*
X130169659Y-83625106D01*
X130021000Y-83595536D01*
X127989000Y-83595536D01*
X127840341Y-83625106D01*
X127714314Y-83709314D01*
X127630106Y-83835341D01*
X127600536Y-83984000D01*
X125265872Y-83984000D01*
X125005671Y-83810140D01*
X124529383Y-83715400D01*
X124480617Y-83715400D01*
X124004329Y-83810140D01*
X123600552Y-84079935D01*
X123330757Y-84483712D01*
X123236017Y-84960000D01*
X123233983Y-84960000D01*
X123139243Y-84483712D01*
X122869448Y-84079935D01*
X122465671Y-83810140D01*
X121989383Y-83715400D01*
X121940617Y-83715400D01*
X121464329Y-83810140D01*
X121060552Y-84079935D01*
X120790757Y-84483712D01*
X120696017Y-84960000D01*
X117921000Y-84960000D01*
X117921000Y-82420000D01*
X120696017Y-82420000D01*
X120790757Y-82896288D01*
X121060552Y-83300065D01*
X121464329Y-83569860D01*
X121940617Y-83664600D01*
X121989383Y-83664600D01*
X122465671Y-83569860D01*
X122869448Y-83300065D01*
X123139243Y-82896288D01*
X123233983Y-82420000D01*
X123236017Y-82420000D01*
X123330757Y-82896288D01*
X123600552Y-83300065D01*
X124004329Y-83569860D01*
X124480617Y-83664600D01*
X124529383Y-83664600D01*
X125005671Y-83569860D01*
X125409448Y-83300065D01*
X125585623Y-83036400D01*
X162675536Y-83036400D01*
X162675536Y-84763600D01*
X162705106Y-84912259D01*
X162789314Y-85038286D01*
X162915341Y-85122494D01*
X163064000Y-85152064D01*
X165096000Y-85152064D01*
X165244659Y-85122494D01*
X165370686Y-85038286D01*
X165454894Y-84912259D01*
X165484464Y-84763600D01*
X165484464Y-83036400D01*
X165454894Y-82887741D01*
X165370686Y-82761714D01*
X165244659Y-82677506D01*
X165096000Y-82647936D01*
X163064000Y-82647936D01*
X162915341Y-82677506D01*
X162789314Y-82761714D01*
X162705106Y-82887741D01*
X162675536Y-83036400D01*
X125585623Y-83036400D01*
X125679243Y-82896288D01*
X125773983Y-82420000D01*
X125679243Y-81943712D01*
X125409448Y-81539935D01*
X125005671Y-81270140D01*
X124529383Y-81175400D01*
X124480617Y-81175400D01*
X124004329Y-81270140D01*
X123600552Y-81539935D01*
X123330757Y-81943712D01*
X123236017Y-82420000D01*
X123233983Y-82420000D01*
X123139243Y-81943712D01*
X122869448Y-81539935D01*
X122465671Y-81270140D01*
X121989383Y-81175400D01*
X121940617Y-81175400D01*
X121464329Y-81270140D01*
X121060552Y-81539935D01*
X120790757Y-81943712D01*
X120696017Y-82420000D01*
X117921000Y-82420000D01*
X117921000Y-79880000D01*
X120696017Y-79880000D01*
X120790757Y-80356288D01*
X121060552Y-80760065D01*
X121464329Y-81029860D01*
X121940617Y-81124600D01*
X121989383Y-81124600D01*
X122465671Y-81029860D01*
X122869448Y-80760065D01*
X123139243Y-80356288D01*
X123233983Y-79880000D01*
X123236017Y-79880000D01*
X123330757Y-80356288D01*
X123600552Y-80760065D01*
X124004329Y-81029860D01*
X124480617Y-81124600D01*
X124529383Y-81124600D01*
X125005671Y-81029860D01*
X125409448Y-80760065D01*
X125679243Y-80356288D01*
X125773983Y-79880000D01*
X125679243Y-79403712D01*
X125409448Y-78999935D01*
X125005671Y-78730140D01*
X124529383Y-78635400D01*
X124480617Y-78635400D01*
X124004329Y-78730140D01*
X123600552Y-78999935D01*
X123330757Y-79403712D01*
X123236017Y-79880000D01*
X123233983Y-79880000D01*
X123139243Y-79403712D01*
X122869448Y-78999935D01*
X122465671Y-78730140D01*
X121989383Y-78635400D01*
X121940617Y-78635400D01*
X121464329Y-78730140D01*
X121060552Y-78999935D01*
X120790757Y-79403712D01*
X120696017Y-79880000D01*
X117921000Y-79880000D01*
X117921000Y-77597163D01*
X120747258Y-77597163D01*
X120922079Y-78019235D01*
X121261399Y-78366640D01*
X121707836Y-78557748D01*
X121901500Y-78487735D01*
X121901500Y-77403500D01*
X122028500Y-77403500D01*
X122028500Y-78487735D01*
X122222164Y-78557748D01*
X122668601Y-78366640D01*
X123007921Y-78019235D01*
X123182742Y-77597163D01*
X123112595Y-77403500D01*
X122028500Y-77403500D01*
X121901500Y-77403500D01*
X120817405Y-77403500D01*
X120747258Y-77597163D01*
X117921000Y-77597163D01*
X117921000Y-77340000D01*
X123236017Y-77340000D01*
X123330757Y-77816288D01*
X123600552Y-78220065D01*
X124004329Y-78489860D01*
X124480617Y-78584600D01*
X124529383Y-78584600D01*
X125005671Y-78489860D01*
X125409448Y-78220065D01*
X125679243Y-77816288D01*
X125773983Y-77340000D01*
X125679243Y-76863712D01*
X125409448Y-76459935D01*
X125005671Y-76190140D01*
X124529383Y-76095400D01*
X124480617Y-76095400D01*
X124004329Y-76190140D01*
X123600552Y-76459935D01*
X123330757Y-76863712D01*
X123236017Y-77340000D01*
X117921000Y-77340000D01*
X117921000Y-77082837D01*
X120747258Y-77082837D01*
X120817405Y-77276500D01*
X121901500Y-77276500D01*
X121901500Y-76192265D01*
X122028500Y-76192265D01*
X122028500Y-77276500D01*
X123112595Y-77276500D01*
X123182742Y-77082837D01*
X123007921Y-76660765D01*
X122668601Y-76313360D01*
X122222164Y-76122252D01*
X122028500Y-76192265D01*
X121901500Y-76192265D01*
X121707836Y-76122252D01*
X121261399Y-76313360D01*
X120922079Y-76660765D01*
X120747258Y-77082837D01*
X117921000Y-77082837D01*
X117921000Y-75306000D01*
X164535089Y-75306000D01*
X165932812Y-75584024D01*
X165932812Y-75584024D01*
G37*
X165932812Y-75584024D02*
X167079669Y-76350331D01*
X167845976Y-77497188D01*
X168124000Y-78894911D01*
X168124000Y-108794000D01*
X121509911Y-108794000D01*
X120112188Y-108515976D01*
X118965331Y-107749669D01*
X118199024Y-106602812D01*
X117921000Y-105205089D01*
X117921000Y-100200000D01*
X120696017Y-100200000D01*
X120790757Y-100676288D01*
X121060552Y-101080065D01*
X121464329Y-101349860D01*
X121940617Y-101444600D01*
X121989383Y-101444600D01*
X122465671Y-101349860D01*
X122869448Y-101080065D01*
X123139243Y-100676288D01*
X123233983Y-100200000D01*
X123139243Y-99723712D01*
X122869448Y-99319935D01*
X122465671Y-99050140D01*
X121989383Y-98955400D01*
X121940617Y-98955400D01*
X121464329Y-99050140D01*
X121060552Y-99319935D01*
X120790757Y-99723712D01*
X120696017Y-100200000D01*
X117921000Y-100200000D01*
X117921000Y-91454669D01*
X119138355Y-91454669D01*
X119257005Y-91741823D01*
X119476512Y-91961714D01*
X119763459Y-92080864D01*
X120074160Y-92081136D01*
X120361314Y-91962486D01*
X120518074Y-91806000D01*
X120989682Y-91806000D01*
X120790757Y-92103712D01*
X120696017Y-92580000D01*
X120790757Y-93056288D01*
X121060552Y-93460065D01*
X121464329Y-93729860D01*
X121940617Y-93824600D01*
X121989383Y-93824600D01*
X122465671Y-93729860D01*
X122869448Y-93460065D01*
X123139243Y-93056288D01*
X123233983Y-92580000D01*
X123139243Y-92103712D01*
X122940318Y-91806000D01*
X123529682Y-91806000D01*
X123330757Y-92103712D01*
X123236017Y-92580000D01*
X123330757Y-93056288D01*
X123556409Y-93394000D01*
X123185000Y-93394000D01*
X122991362Y-93432517D01*
X122870013Y-93513600D01*
X122827204Y-93542204D01*
X122410285Y-93959123D01*
X121989383Y-93875400D01*
X121940617Y-93875400D01*
X121464329Y-93970140D01*
X121060552Y-94239935D01*
X120790757Y-94643712D01*
X120696017Y-95120000D01*
X120790757Y-95596288D01*
X121060552Y-96000065D01*
X121464329Y-96269860D01*
X121940617Y-96364600D01*
X121989383Y-96364600D01*
X122465671Y-96269860D01*
X122869448Y-96000065D01*
X123139243Y-95596288D01*
X123233983Y-95120000D01*
X123142169Y-94658423D01*
X123394592Y-94406000D01*
X123489591Y-94406000D01*
X123330757Y-94643712D01*
X123236017Y-95120000D01*
X123330757Y-95596288D01*
X123600552Y-96000065D01*
X124004329Y-96269860D01*
X124480617Y-96364600D01*
X124529383Y-96364600D01*
X125005671Y-96269860D01*
X125409448Y-96000065D01*
X125679243Y-95596288D01*
X125731372Y-95334220D01*
X126302128Y-94763464D01*
X126685944Y-94763464D01*
X124950285Y-96499123D01*
X124529383Y-96415400D01*
X124480617Y-96415400D01*
X124004329Y-96510140D01*
X123600552Y-96779935D01*
X123330757Y-97183712D01*
X123236017Y-97660000D01*
X123330757Y-98136288D01*
X123502955Y-98394000D01*
X123414592Y-98394000D01*
X123142169Y-98121577D01*
X123233983Y-97660000D01*
X123139243Y-97183712D01*
X122869448Y-96779935D01*
X122465671Y-96510140D01*
X121989383Y-96415400D01*
X121940617Y-96415400D01*
X121464329Y-96510140D01*
X121060552Y-96779935D01*
X120790757Y-97183712D01*
X120696017Y-97660000D01*
X120790757Y-98136288D01*
X121060552Y-98540065D01*
X121464329Y-98809860D01*
X121940617Y-98904600D01*
X121989383Y-98904600D01*
X122410285Y-98820877D01*
X122847204Y-99257796D01*
X123011362Y-99367483D01*
X123205000Y-99406000D01*
X123252936Y-99406000D01*
X123252936Y-101063600D01*
X123282506Y-101212259D01*
X123366714Y-101338286D01*
X123492741Y-101422494D01*
X123641400Y-101452064D01*
X125368600Y-101452064D01*
X125517259Y-101422494D01*
X125643286Y-101338286D01*
X125727494Y-101212259D01*
X125757064Y-101063600D01*
X125757064Y-99336400D01*
X125727494Y-99187741D01*
X125643286Y-99061714D01*
X125604155Y-99035567D01*
X126189722Y-98450000D01*
X126836536Y-98450000D01*
X126836536Y-99650000D01*
X126866106Y-99798659D01*
X126950314Y-99924686D01*
X127076341Y-100008894D01*
X127225000Y-100038464D01*
X127975000Y-100038464D01*
X128123659Y-100008894D01*
X128249686Y-99924686D01*
X128333894Y-99798659D01*
X128363464Y-99650000D01*
X128363464Y-99556000D01*
X128551579Y-99556000D01*
X128707021Y-99711714D01*
X128993968Y-99830864D01*
X129304669Y-99831136D01*
X129591823Y-99712486D01*
X129811714Y-99492979D01*
X129930864Y-99206032D01*
X129931136Y-98895331D01*
X129812486Y-98608177D01*
X129592979Y-98388286D01*
X129306032Y-98269136D01*
X128995331Y-98268864D01*
X128708177Y-98387514D01*
X128551417Y-98544000D01*
X128363464Y-98544000D01*
X128363464Y-98450000D01*
X128333894Y-98301341D01*
X128249686Y-98175314D01*
X128123659Y-98091106D01*
X127975000Y-98061536D01*
X127225000Y-98061536D01*
X127076341Y-98091106D01*
X126950314Y-98175314D01*
X126866106Y-98301341D01*
X126836536Y-98450000D01*
X126189722Y-98450000D01*
X126907796Y-97731926D01*
X126914000Y-97722641D01*
X126914000Y-97811862D01*
X126961347Y-97926168D01*
X127048833Y-98013653D01*
X127163138Y-98061000D01*
X127458750Y-98061000D01*
X127536500Y-97983250D01*
X127536500Y-97213500D01*
X127663500Y-97213500D01*
X127663500Y-97983250D01*
X127741250Y-98061000D01*
X128036862Y-98061000D01*
X128151167Y-98013653D01*
X128238653Y-97926168D01*
X128286000Y-97811862D01*
X128286000Y-97291250D01*
X128208250Y-97213500D01*
X127663500Y-97213500D01*
X127536500Y-97213500D01*
X127516500Y-97213500D01*
X127516500Y-97086500D01*
X127536500Y-97086500D01*
X127536500Y-96316750D01*
X127663500Y-96316750D01*
X127663500Y-97086500D01*
X128208250Y-97086500D01*
X128286000Y-97008750D01*
X128286000Y-96488138D01*
X128238653Y-96373832D01*
X128151167Y-96286347D01*
X128036862Y-96239000D01*
X127741250Y-96239000D01*
X127663500Y-96316750D01*
X127536500Y-96316750D01*
X127458750Y-96239000D01*
X127278002Y-96239000D01*
X127760991Y-95756011D01*
X128786400Y-95756011D01*
X128980038Y-95717494D01*
X129144196Y-95607807D01*
X129654790Y-95097213D01*
X129727093Y-95183510D01*
X129941497Y-95289058D01*
X130031500Y-95235913D01*
X130031500Y-94357500D01*
X130158500Y-94357500D01*
X130158500Y-95235913D01*
X130248503Y-95289058D01*
X130462907Y-95183510D01*
X130610060Y-95007877D01*
X130678800Y-94789300D01*
X130678800Y-94357500D01*
X130158500Y-94357500D01*
X130031500Y-94357500D01*
X130011500Y-94357500D01*
X130011500Y-94230500D01*
X130031500Y-94230500D01*
X130031500Y-94210500D01*
X130158500Y-94210500D01*
X130158500Y-94230500D01*
X130678800Y-94230500D01*
X130678800Y-93798700D01*
X130633922Y-93656000D01*
X130715860Y-93656000D01*
X130679200Y-93840305D01*
X130679200Y-94747695D01*
X130731403Y-95010139D01*
X130859000Y-95201101D01*
X130859000Y-96136536D01*
X130450000Y-96136536D01*
X130301341Y-96166106D01*
X130175314Y-96250314D01*
X130091106Y-96376341D01*
X130061536Y-96525000D01*
X130061536Y-97275000D01*
X130091106Y-97423659D01*
X130175314Y-97549686D01*
X130301341Y-97633894D01*
X130450000Y-97663464D01*
X130544000Y-97663464D01*
X130544000Y-99790408D01*
X130172872Y-100161536D01*
X127500000Y-100161536D01*
X127351341Y-100191106D01*
X127225314Y-100275314D01*
X127141106Y-100401341D01*
X127111536Y-100550000D01*
X127111536Y-106550000D01*
X127141106Y-106698659D01*
X127225314Y-106824686D01*
X127351341Y-106908894D01*
X127500000Y-106938464D01*
X130500000Y-106938464D01*
X130648659Y-106908894D01*
X130774686Y-106824686D01*
X130858894Y-106698659D01*
X130888464Y-106550000D01*
X130888464Y-100877128D01*
X131407796Y-100357796D01*
X131517483Y-100193638D01*
X131556000Y-100000000D01*
X131556000Y-97663464D01*
X131650000Y-97663464D01*
X131798659Y-97633894D01*
X131924686Y-97549686D01*
X132000000Y-97436970D01*
X132075314Y-97549686D01*
X132201341Y-97633894D01*
X132350000Y-97663464D01*
X132444000Y-97663464D01*
X132444000Y-100000000D01*
X132482517Y-100193638D01*
X132592204Y-100357796D01*
X133111536Y-100877128D01*
X133111536Y-106550000D01*
X133141106Y-106698659D01*
X133225314Y-106824686D01*
X133351341Y-106908894D01*
X133500000Y-106938464D01*
X136500000Y-106938464D01*
X136648659Y-106908894D01*
X136774686Y-106824686D01*
X136817907Y-106760000D01*
X162655631Y-106760000D01*
X162750371Y-107236288D01*
X163020166Y-107640065D01*
X163423943Y-107909860D01*
X163900231Y-108004600D01*
X164259769Y-108004600D01*
X164736057Y-107909860D01*
X165139834Y-107640065D01*
X165409629Y-107236288D01*
X165504369Y-106760000D01*
X165409629Y-106283712D01*
X165139834Y-105879935D01*
X164736057Y-105610140D01*
X164259769Y-105515400D01*
X163900231Y-105515400D01*
X163423943Y-105610140D01*
X163020166Y-105879935D01*
X162750371Y-106283712D01*
X162655631Y-106760000D01*
X136817907Y-106760000D01*
X136858894Y-106698659D01*
X136888464Y-106550000D01*
X136888464Y-104477163D01*
X162709858Y-104477163D01*
X162753439Y-104637622D01*
X163002634Y-105055164D01*
X163392646Y-105345560D01*
X163864100Y-105464600D01*
X164016500Y-105464600D01*
X164016500Y-104283500D01*
X164143500Y-104283500D01*
X164143500Y-105464600D01*
X164295900Y-105464600D01*
X164767354Y-105345560D01*
X165157366Y-105055164D01*
X165406561Y-104637622D01*
X165450142Y-104477163D01*
X165379995Y-104283500D01*
X164143500Y-104283500D01*
X164016500Y-104283500D01*
X162780005Y-104283500D01*
X162709858Y-104477163D01*
X136888464Y-104477163D01*
X136888464Y-103962837D01*
X162709858Y-103962837D01*
X162780005Y-104156500D01*
X164016500Y-104156500D01*
X164016500Y-102975400D01*
X164143500Y-102975400D01*
X164143500Y-104156500D01*
X165379995Y-104156500D01*
X165450142Y-103962837D01*
X165406561Y-103802378D01*
X165157366Y-103384836D01*
X164767354Y-103094440D01*
X164295900Y-102975400D01*
X164143500Y-102975400D01*
X164016500Y-102975400D01*
X163864100Y-102975400D01*
X163392646Y-103094440D01*
X163002634Y-103384836D01*
X162753439Y-103802378D01*
X162709858Y-103962837D01*
X136888464Y-103962837D01*
X136888464Y-101680000D01*
X162655631Y-101680000D01*
X162750371Y-102156288D01*
X163020166Y-102560065D01*
X163423943Y-102829860D01*
X163900231Y-102924600D01*
X164259769Y-102924600D01*
X164736057Y-102829860D01*
X165139834Y-102560065D01*
X165409629Y-102156288D01*
X165504369Y-101680000D01*
X165409629Y-101203712D01*
X165139834Y-100799935D01*
X164736057Y-100530140D01*
X164259769Y-100435400D01*
X163900231Y-100435400D01*
X163423943Y-100530140D01*
X163020166Y-100799935D01*
X162750371Y-101203712D01*
X162655631Y-101680000D01*
X136888464Y-101680000D01*
X136888464Y-100550000D01*
X136858894Y-100401341D01*
X136774686Y-100275314D01*
X136648659Y-100191106D01*
X136500000Y-100161536D01*
X133827128Y-100161536D01*
X133456000Y-99790408D01*
X133456000Y-97663464D01*
X133550000Y-97663464D01*
X133698659Y-97633894D01*
X133824686Y-97549686D01*
X133908894Y-97423659D01*
X133938464Y-97275000D01*
X133938464Y-96525000D01*
X133908894Y-96376341D01*
X133824686Y-96250314D01*
X133698659Y-96166106D01*
X133550000Y-96136536D01*
X133141000Y-96136536D01*
X133141000Y-95201101D01*
X133268597Y-95010139D01*
X133270000Y-95003086D01*
X133271403Y-95010139D01*
X133399000Y-95201101D01*
X133399000Y-95555000D01*
X133437517Y-95748638D01*
X133547204Y-95912796D01*
X134261536Y-96627128D01*
X134261536Y-97275000D01*
X134291106Y-97423659D01*
X134375314Y-97549686D01*
X134501341Y-97633894D01*
X134650000Y-97663464D01*
X134744000Y-97663464D01*
X134744000Y-98271579D01*
X134588286Y-98427021D01*
X134469136Y-98713968D01*
X134468864Y-99024669D01*
X134587514Y-99311823D01*
X134807021Y-99531714D01*
X135093968Y-99650864D01*
X135404669Y-99651136D01*
X135691823Y-99532486D01*
X135911714Y-99312979D01*
X136011514Y-99072631D01*
X140848000Y-99072631D01*
X140848000Y-99127369D01*
X140954340Y-99661978D01*
X141257172Y-100115197D01*
X141710391Y-100418029D01*
X142245000Y-100524369D01*
X142779609Y-100418029D01*
X143232828Y-100115197D01*
X143388000Y-99882966D01*
X143388000Y-100191786D01*
X143446004Y-100331820D01*
X143553181Y-100438996D01*
X143693215Y-100497000D01*
X144626250Y-100497000D01*
X144721500Y-100401750D01*
X144721500Y-99163500D01*
X144848500Y-99163500D01*
X144848500Y-100401750D01*
X144943750Y-100497000D01*
X145876785Y-100497000D01*
X146016819Y-100438996D01*
X146123996Y-100331820D01*
X146182000Y-100191786D01*
X146182000Y-99258750D01*
X146086750Y-99163500D01*
X144848500Y-99163500D01*
X144721500Y-99163500D01*
X144701500Y-99163500D01*
X144701500Y-99036500D01*
X144721500Y-99036500D01*
X144721500Y-97798250D01*
X144848500Y-97798250D01*
X144848500Y-99036500D01*
X146086750Y-99036500D01*
X146182000Y-98941250D01*
X146182000Y-98008214D01*
X146123996Y-97868180D01*
X146016819Y-97761004D01*
X145876785Y-97703000D01*
X144943750Y-97703000D01*
X144848500Y-97798250D01*
X144721500Y-97798250D01*
X144626250Y-97703000D01*
X143693215Y-97703000D01*
X143553181Y-97761004D01*
X143446004Y-97868180D01*
X143388000Y-98008214D01*
X143388000Y-98317034D01*
X143232828Y-98084803D01*
X142779609Y-97781971D01*
X142245000Y-97675631D01*
X141710391Y-97781971D01*
X141257172Y-98084803D01*
X140954340Y-98538022D01*
X140848000Y-99072631D01*
X136011514Y-99072631D01*
X136030864Y-99026032D01*
X136031136Y-98715331D01*
X135912486Y-98428177D01*
X135756000Y-98271417D01*
X135756000Y-97663464D01*
X135850000Y-97663464D01*
X135998659Y-97633894D01*
X136124686Y-97549686D01*
X136202901Y-97432629D01*
X136227004Y-97490819D01*
X136334180Y-97597996D01*
X136474214Y-97656000D01*
X136991250Y-97656000D01*
X137086500Y-97560750D01*
X137086500Y-96963500D01*
X137213500Y-96963500D01*
X137213500Y-97560750D01*
X137308750Y-97656000D01*
X137825786Y-97656000D01*
X137965820Y-97597996D01*
X138072996Y-97490819D01*
X138131000Y-97350785D01*
X138131000Y-97058750D01*
X138035750Y-96963500D01*
X137213500Y-96963500D01*
X137086500Y-96963500D01*
X137066500Y-96963500D01*
X137066500Y-96836500D01*
X137086500Y-96836500D01*
X137086500Y-96239250D01*
X137213500Y-96239250D01*
X137213500Y-96836500D01*
X138035750Y-96836500D01*
X138131000Y-96741250D01*
X138131000Y-96449215D01*
X138072996Y-96309181D01*
X137965820Y-96202004D01*
X137825786Y-96144000D01*
X137308750Y-96144000D01*
X137213500Y-96239250D01*
X137086500Y-96239250D01*
X136991250Y-96144000D01*
X136821592Y-96144000D01*
X138803066Y-94162526D01*
X139469886Y-94162526D01*
X139663524Y-94124009D01*
X139827682Y-94014322D01*
X140307806Y-93534198D01*
X140417493Y-93370040D01*
X140456010Y-93176402D01*
X140456010Y-91120010D01*
X140417493Y-90926372D01*
X140307806Y-90762214D01*
X139737796Y-90192204D01*
X139573638Y-90082517D01*
X139480664Y-90064023D01*
X139404686Y-89950314D01*
X139278659Y-89866106D01*
X139130000Y-89836536D01*
X138070000Y-89836536D01*
X137921341Y-89866106D01*
X137900961Y-89879724D01*
X137857963Y-89815373D01*
X135284794Y-87242204D01*
X135120636Y-87132517D01*
X134926998Y-87094000D01*
X132000000Y-87094000D01*
X131806362Y-87132517D01*
X131748258Y-87171341D01*
X131642204Y-87242204D01*
X131306209Y-87578199D01*
X131102556Y-87618708D01*
X130880066Y-87767371D01*
X130731403Y-87989861D01*
X130730000Y-87996914D01*
X130728597Y-87989861D01*
X130579934Y-87767371D01*
X130357444Y-87618708D01*
X130095000Y-87566505D01*
X129832556Y-87618708D01*
X129610066Y-87767371D01*
X129461403Y-87989861D01*
X129409200Y-88252305D01*
X129409200Y-89159695D01*
X129461403Y-89422139D01*
X129610066Y-89644629D01*
X129832556Y-89793292D01*
X129926739Y-89812026D01*
X128263464Y-91475301D01*
X128263464Y-90700000D01*
X128233894Y-90551341D01*
X128149686Y-90425314D01*
X128032629Y-90347099D01*
X128090819Y-90322996D01*
X128197996Y-90215820D01*
X128256000Y-90075786D01*
X128256000Y-89558750D01*
X128160750Y-89463500D01*
X127563500Y-89463500D01*
X127563500Y-89483500D01*
X127436500Y-89483500D01*
X127436500Y-89463500D01*
X126839250Y-89463500D01*
X126744000Y-89558750D01*
X126744000Y-90075786D01*
X126802004Y-90215820D01*
X126909181Y-90322996D01*
X126967371Y-90347099D01*
X126850314Y-90425314D01*
X126766106Y-90551341D01*
X126736536Y-90700000D01*
X126736536Y-90794000D01*
X125493682Y-90794000D01*
X125679243Y-90516288D01*
X125773983Y-90040000D01*
X125679243Y-89563712D01*
X125409448Y-89159935D01*
X125005671Y-88890140D01*
X124529383Y-88795400D01*
X124480617Y-88795400D01*
X124004329Y-88890140D01*
X123600552Y-89159935D01*
X123330757Y-89563712D01*
X123236017Y-90040000D01*
X123330757Y-90516288D01*
X123516318Y-90794000D01*
X122953682Y-90794000D01*
X123139243Y-90516288D01*
X123233983Y-90040000D01*
X123139243Y-89563712D01*
X122869448Y-89159935D01*
X122465671Y-88890140D01*
X121989383Y-88795400D01*
X121940617Y-88795400D01*
X121464329Y-88890140D01*
X121060552Y-89159935D01*
X120790757Y-89563712D01*
X120696017Y-90040000D01*
X120790757Y-90516288D01*
X120976318Y-90794000D01*
X120517912Y-90794000D01*
X120362470Y-90638286D01*
X120075523Y-90519136D01*
X119764822Y-90518864D01*
X119477668Y-90637514D01*
X119257777Y-90857021D01*
X119138627Y-91143968D01*
X119138355Y-91454669D01*
X117921000Y-91454669D01*
X117921000Y-87500000D01*
X120696017Y-87500000D01*
X120790757Y-87976288D01*
X121060552Y-88380065D01*
X121464329Y-88649860D01*
X121940617Y-88744600D01*
X121989383Y-88744600D01*
X122465671Y-88649860D01*
X122869448Y-88380065D01*
X123139243Y-87976288D01*
X123233983Y-87500000D01*
X123236017Y-87500000D01*
X123330757Y-87976288D01*
X123600552Y-88380065D01*
X124004329Y-88649860D01*
X124480617Y-88744600D01*
X124529383Y-88744600D01*
X124631869Y-88724214D01*
X126744000Y-88724214D01*
X126744000Y-89241250D01*
X126839250Y-89336500D01*
X127436500Y-89336500D01*
X127436500Y-88514250D01*
X127563500Y-88514250D01*
X127563500Y-89336500D01*
X128160750Y-89336500D01*
X128256000Y-89241250D01*
X128256000Y-88724214D01*
X128197996Y-88584180D01*
X128090819Y-88477004D01*
X127950785Y-88419000D01*
X127658750Y-88419000D01*
X127563500Y-88514250D01*
X127436500Y-88514250D01*
X127341250Y-88419000D01*
X127049215Y-88419000D01*
X126909181Y-88477004D01*
X126802004Y-88584180D01*
X126744000Y-88724214D01*
X124631869Y-88724214D01*
X125005671Y-88649860D01*
X125409448Y-88380065D01*
X125679243Y-87976288D01*
X125773983Y-87500000D01*
X125679243Y-87023712D01*
X125409448Y-86619935D01*
X125005671Y-86350140D01*
X124529383Y-86255400D01*
X124480617Y-86255400D01*
X124004329Y-86350140D01*
X123600552Y-86619935D01*
X123330757Y-87023712D01*
X123236017Y-87500000D01*
X123233983Y-87500000D01*
X123139243Y-87023712D01*
X122869448Y-86619935D01*
X122465671Y-86350140D01*
X121989383Y-86255400D01*
X121940617Y-86255400D01*
X121464329Y-86350140D01*
X121060552Y-86619935D01*
X120790757Y-87023712D01*
X120696017Y-87500000D01*
X117921000Y-87500000D01*
X117921000Y-84960000D01*
X120696017Y-84960000D01*
X120790757Y-85436288D01*
X121060552Y-85840065D01*
X121464329Y-86109860D01*
X121940617Y-86204600D01*
X121989383Y-86204600D01*
X122465671Y-86109860D01*
X122869448Y-85840065D01*
X123139243Y-85436288D01*
X123233983Y-84960000D01*
X123236017Y-84960000D01*
X123330757Y-85436288D01*
X123600552Y-85840065D01*
X124004329Y-86109860D01*
X124480617Y-86204600D01*
X124529383Y-86204600D01*
X125005671Y-86109860D01*
X125409448Y-85840065D01*
X125679243Y-85436288D01*
X125773983Y-84960000D01*
X125679243Y-84483712D01*
X125409448Y-84079935D01*
X125265872Y-83984000D01*
X127600536Y-83984000D01*
X127600536Y-86016000D01*
X127630106Y-86164659D01*
X127714314Y-86290686D01*
X127840341Y-86374894D01*
X127989000Y-86404464D01*
X130021000Y-86404464D01*
X130169659Y-86374894D01*
X130295686Y-86290686D01*
X130379894Y-86164659D01*
X130409464Y-86016000D01*
X130409464Y-85803879D01*
X130422746Y-85831976D01*
X130826556Y-86198114D01*
X131205824Y-86355201D01*
X131422000Y-86295926D01*
X131422000Y-85123000D01*
X131668000Y-85123000D01*
X131668000Y-86295926D01*
X131884176Y-86355201D01*
X132263444Y-86198114D01*
X132667254Y-85831976D01*
X132900211Y-85339178D01*
X132841335Y-85123000D01*
X131668000Y-85123000D01*
X131422000Y-85123000D01*
X131402000Y-85123000D01*
X131402000Y-84877000D01*
X131422000Y-84877000D01*
X131422000Y-83704074D01*
X131668000Y-83704074D01*
X131668000Y-84877000D01*
X132841335Y-84877000D01*
X132900211Y-84660822D01*
X132667254Y-84168024D01*
X132464296Y-83984000D01*
X135912936Y-83984000D01*
X135912936Y-86016000D01*
X135942506Y-86164659D01*
X136026714Y-86290686D01*
X136152741Y-86374894D01*
X136301400Y-86404464D01*
X138028600Y-86404464D01*
X138177259Y-86374894D01*
X138303286Y-86290686D01*
X138387494Y-86164659D01*
X138417064Y-86016000D01*
X138417064Y-84820231D01*
X138460400Y-84820231D01*
X138460400Y-85179769D01*
X138555140Y-85656057D01*
X138824935Y-86059834D01*
X139228712Y-86329629D01*
X139705000Y-86424369D01*
X140181288Y-86329629D01*
X140585065Y-86059834D01*
X140854860Y-85656057D01*
X140949600Y-85179769D01*
X140949600Y-84820231D01*
X141000400Y-84820231D01*
X141000400Y-85179769D01*
X141095140Y-85656057D01*
X141364935Y-86059834D01*
X141768712Y-86329629D01*
X142245000Y-86424369D01*
X142721288Y-86329629D01*
X143125065Y-86059834D01*
X143394860Y-85656057D01*
X143489600Y-85179769D01*
X143489600Y-84820231D01*
X143540400Y-84820231D01*
X143540400Y-85179769D01*
X143635140Y-85656057D01*
X143904935Y-86059834D01*
X144308712Y-86329629D01*
X144785000Y-86424369D01*
X145261288Y-86329629D01*
X145665065Y-86059834D01*
X145934860Y-85656057D01*
X146029600Y-85179769D01*
X146029600Y-84820231D01*
X145934860Y-84343943D01*
X145694354Y-83984000D01*
X149152936Y-83984000D01*
X149152936Y-86016000D01*
X149182506Y-86164659D01*
X149195870Y-86184660D01*
X149195870Y-93316870D01*
X149234387Y-93510508D01*
X149344074Y-93674666D01*
X154199583Y-98530175D01*
X154194340Y-98538022D01*
X154088000Y-99072631D01*
X154088000Y-99127369D01*
X154194340Y-99661978D01*
X154497172Y-100115197D01*
X154950391Y-100418029D01*
X155485000Y-100524369D01*
X156019609Y-100418029D01*
X156472828Y-100115197D01*
X156628000Y-99882966D01*
X156628000Y-100191786D01*
X156686004Y-100331820D01*
X156793181Y-100438996D01*
X156933215Y-100497000D01*
X157866250Y-100497000D01*
X157961500Y-100401750D01*
X157961500Y-99163500D01*
X158088500Y-99163500D01*
X158088500Y-100401750D01*
X158183750Y-100497000D01*
X159116785Y-100497000D01*
X159256819Y-100438996D01*
X159363996Y-100331820D01*
X159422000Y-100191786D01*
X159422000Y-99258750D01*
X159326750Y-99163500D01*
X158088500Y-99163500D01*
X157961500Y-99163500D01*
X157941500Y-99163500D01*
X157941500Y-99140000D01*
X162655631Y-99140000D01*
X162750371Y-99616288D01*
X163020166Y-100020065D01*
X163423943Y-100289860D01*
X163900231Y-100384600D01*
X164259769Y-100384600D01*
X164736057Y-100289860D01*
X165139834Y-100020065D01*
X165409629Y-99616288D01*
X165504369Y-99140000D01*
X165409629Y-98663712D01*
X165139834Y-98259935D01*
X164736057Y-97990140D01*
X164259769Y-97895400D01*
X163900231Y-97895400D01*
X163423943Y-97990140D01*
X163020166Y-98259935D01*
X162750371Y-98663712D01*
X162655631Y-99140000D01*
X157941500Y-99140000D01*
X157941500Y-99036500D01*
X157961500Y-99036500D01*
X157961500Y-97798250D01*
X158088500Y-97798250D01*
X158088500Y-99036500D01*
X159326750Y-99036500D01*
X159422000Y-98941250D01*
X159422000Y-98008214D01*
X159363996Y-97868180D01*
X159256819Y-97761004D01*
X159116785Y-97703000D01*
X158183750Y-97703000D01*
X158088500Y-97798250D01*
X157961500Y-97798250D01*
X157866250Y-97703000D01*
X156933215Y-97703000D01*
X156793181Y-97761004D01*
X156686004Y-97868180D01*
X156628000Y-98008214D01*
X156628000Y-98317034D01*
X156472828Y-98084803D01*
X156019609Y-97781971D01*
X155485000Y-97675631D01*
X154950391Y-97781971D01*
X154909731Y-97809139D01*
X153700592Y-96600000D01*
X162655631Y-96600000D01*
X162750371Y-97076288D01*
X163020166Y-97480065D01*
X163423943Y-97749860D01*
X163900231Y-97844600D01*
X164259769Y-97844600D01*
X164736057Y-97749860D01*
X165139834Y-97480065D01*
X165409629Y-97076288D01*
X165504369Y-96600000D01*
X165409629Y-96123712D01*
X165139834Y-95719935D01*
X164736057Y-95450140D01*
X164259769Y-95355400D01*
X163900231Y-95355400D01*
X163423943Y-95450140D01*
X163020166Y-95719935D01*
X162750371Y-96123712D01*
X162655631Y-96600000D01*
X153700592Y-96600000D01*
X151160592Y-94060000D01*
X162655631Y-94060000D01*
X162750371Y-94536288D01*
X163020166Y-94940065D01*
X163423943Y-95209860D01*
X163900231Y-95304600D01*
X164259769Y-95304600D01*
X164736057Y-95209860D01*
X165139834Y-94940065D01*
X165409629Y-94536288D01*
X165504369Y-94060000D01*
X165409629Y-93583712D01*
X165139834Y-93179935D01*
X164736057Y-92910140D01*
X164259769Y-92815400D01*
X163900231Y-92815400D01*
X163423943Y-92910140D01*
X163020166Y-93179935D01*
X162750371Y-93583712D01*
X162655631Y-94060000D01*
X151160592Y-94060000D01*
X150898202Y-93797610D01*
X151176823Y-93682486D01*
X151396714Y-93462979D01*
X151515864Y-93176032D01*
X151516136Y-92865331D01*
X151404304Y-92594679D01*
X151483659Y-92578894D01*
X151609686Y-92494686D01*
X151693894Y-92368659D01*
X151723464Y-92220000D01*
X151723464Y-91447128D01*
X151970359Y-91200233D01*
X151946536Y-91320000D01*
X151946536Y-92220000D01*
X151976106Y-92368659D01*
X152060314Y-92494686D01*
X152186341Y-92578894D01*
X152335000Y-92608464D01*
X153535000Y-92608464D01*
X153683659Y-92578894D01*
X153809686Y-92494686D01*
X153839873Y-92449508D01*
X154083968Y-92550864D01*
X154394669Y-92551136D01*
X154632399Y-92452908D01*
X154660314Y-92494686D01*
X154786341Y-92578894D01*
X154935000Y-92608464D01*
X156135000Y-92608464D01*
X156283659Y-92578894D01*
X156409686Y-92494686D01*
X156493894Y-92368659D01*
X156523464Y-92220000D01*
X156523464Y-91320000D01*
X156499641Y-91200233D01*
X156746536Y-91447128D01*
X156746536Y-92220000D01*
X156776106Y-92368659D01*
X156860314Y-92494686D01*
X156986341Y-92578894D01*
X157065934Y-92594726D01*
X156954136Y-92863968D01*
X156953864Y-93174669D01*
X157072514Y-93461823D01*
X157292021Y-93681714D01*
X157578968Y-93800864D01*
X157889669Y-93801136D01*
X158176823Y-93682486D01*
X158396714Y-93462979D01*
X158515864Y-93176032D01*
X158516136Y-92865331D01*
X158404304Y-92594679D01*
X158483659Y-92578894D01*
X158609686Y-92494686D01*
X158693894Y-92368659D01*
X158723464Y-92220000D01*
X158723464Y-91520000D01*
X162655631Y-91520000D01*
X162750371Y-91996288D01*
X163020166Y-92400065D01*
X163423943Y-92669860D01*
X163900231Y-92764600D01*
X164259769Y-92764600D01*
X164736057Y-92669860D01*
X165139834Y-92400065D01*
X165409629Y-91996288D01*
X165504369Y-91520000D01*
X165409629Y-91043712D01*
X165139834Y-90639935D01*
X164736057Y-90370140D01*
X164259769Y-90275400D01*
X163900231Y-90275400D01*
X163423943Y-90370140D01*
X163020166Y-90639935D01*
X162750371Y-91043712D01*
X162655631Y-91520000D01*
X158723464Y-91520000D01*
X158723464Y-91320000D01*
X158693894Y-91171341D01*
X158609686Y-91045314D01*
X158483659Y-90961106D01*
X158335000Y-90931536D01*
X157662128Y-90931536D01*
X157115233Y-90384641D01*
X157235000Y-90408464D01*
X158035000Y-90408464D01*
X158183659Y-90378894D01*
X158309686Y-90294686D01*
X158393894Y-90168659D01*
X158423464Y-90020000D01*
X158423464Y-89520000D01*
X158393894Y-89371341D01*
X158309686Y-89245314D01*
X158183659Y-89161106D01*
X158141000Y-89152621D01*
X158141000Y-88980000D01*
X162655631Y-88980000D01*
X162750371Y-89456288D01*
X163020166Y-89860065D01*
X163423943Y-90129860D01*
X163900231Y-90224600D01*
X164259769Y-90224600D01*
X164736057Y-90129860D01*
X165139834Y-89860065D01*
X165409629Y-89456288D01*
X165504369Y-88980000D01*
X165409629Y-88503712D01*
X165139834Y-88099935D01*
X164736057Y-87830140D01*
X164259769Y-87735400D01*
X163900231Y-87735400D01*
X163423943Y-87830140D01*
X163020166Y-88099935D01*
X162750371Y-88503712D01*
X162655631Y-88980000D01*
X158141000Y-88980000D01*
X158141000Y-88608464D01*
X158335000Y-88608464D01*
X158483659Y-88578894D01*
X158609686Y-88494686D01*
X158693894Y-88368659D01*
X158723464Y-88220000D01*
X158723464Y-87320000D01*
X158693894Y-87171341D01*
X158609686Y-87045314D01*
X158483659Y-86961106D01*
X158335000Y-86931536D01*
X157612128Y-86931536D01*
X157120592Y-86440000D01*
X162655631Y-86440000D01*
X162750371Y-86916288D01*
X163020166Y-87320065D01*
X163423943Y-87589860D01*
X163900231Y-87684600D01*
X164259769Y-87684600D01*
X164736057Y-87589860D01*
X165139834Y-87320065D01*
X165409629Y-86916288D01*
X165504369Y-86440000D01*
X165409629Y-85963712D01*
X165139834Y-85559935D01*
X164736057Y-85290140D01*
X164259769Y-85195400D01*
X163900231Y-85195400D01*
X163423943Y-85290140D01*
X163020166Y-85559935D01*
X162750371Y-85963712D01*
X162655631Y-86440000D01*
X157120592Y-86440000D01*
X156515413Y-85834821D01*
X156634860Y-85656057D01*
X156729600Y-85179769D01*
X156729600Y-85063500D01*
X156780400Y-85063500D01*
X156780400Y-85215900D01*
X156899440Y-85687354D01*
X157189836Y-86077366D01*
X157607378Y-86326561D01*
X157767837Y-86370142D01*
X157961500Y-86299995D01*
X157961500Y-85063500D01*
X158088500Y-85063500D01*
X158088500Y-86299995D01*
X158282163Y-86370142D01*
X158442622Y-86326561D01*
X158860164Y-86077366D01*
X159150560Y-85687354D01*
X159269600Y-85215900D01*
X159269600Y-85063500D01*
X158088500Y-85063500D01*
X157961500Y-85063500D01*
X156780400Y-85063500D01*
X156729600Y-85063500D01*
X156729600Y-84820231D01*
X156722414Y-84784100D01*
X156780400Y-84784100D01*
X156780400Y-84936500D01*
X157961500Y-84936500D01*
X157961500Y-83700005D01*
X158088500Y-83700005D01*
X158088500Y-84936500D01*
X159269600Y-84936500D01*
X159269600Y-84784100D01*
X159150560Y-84312646D01*
X158860164Y-83922634D01*
X158442622Y-83673439D01*
X158282163Y-83629858D01*
X158088500Y-83700005D01*
X157961500Y-83700005D01*
X157767837Y-83629858D01*
X157607378Y-83673439D01*
X157189836Y-83922634D01*
X156899440Y-84312646D01*
X156780400Y-84784100D01*
X156722414Y-84784100D01*
X156634860Y-84343943D01*
X156365065Y-83940166D01*
X155961288Y-83670371D01*
X155485000Y-83575631D01*
X155008712Y-83670371D01*
X154604935Y-83940166D01*
X154585237Y-83969645D01*
X153857796Y-83242204D01*
X153693638Y-83132517D01*
X153500000Y-83094000D01*
X151652600Y-83094000D01*
X151458962Y-83132517D01*
X151294804Y-83242204D01*
X150941472Y-83595536D01*
X149541400Y-83595536D01*
X149392741Y-83625106D01*
X149266714Y-83709314D01*
X149182506Y-83835341D01*
X149152936Y-83984000D01*
X145694354Y-83984000D01*
X145665065Y-83940166D01*
X145261288Y-83670371D01*
X144785000Y-83575631D01*
X144308712Y-83670371D01*
X143904935Y-83940166D01*
X143635140Y-84343943D01*
X143540400Y-84820231D01*
X143489600Y-84820231D01*
X143394860Y-84343943D01*
X143125065Y-83940166D01*
X142721288Y-83670371D01*
X142245000Y-83575631D01*
X141768712Y-83670371D01*
X141364935Y-83940166D01*
X141095140Y-84343943D01*
X141000400Y-84820231D01*
X140949600Y-84820231D01*
X140854860Y-84343943D01*
X140585065Y-83940166D01*
X140181288Y-83670371D01*
X139705000Y-83575631D01*
X139228712Y-83670371D01*
X138824935Y-83940166D01*
X138555140Y-84343943D01*
X138460400Y-84820231D01*
X138417064Y-84820231D01*
X138417064Y-83984000D01*
X138387494Y-83835341D01*
X138303286Y-83709314D01*
X138177259Y-83625106D01*
X138028600Y-83595536D01*
X136301400Y-83595536D01*
X136152741Y-83625106D01*
X136026714Y-83709314D01*
X135942506Y-83835341D01*
X135912936Y-83984000D01*
X132464296Y-83984000D01*
X132263444Y-83801886D01*
X131884176Y-83644799D01*
X131668000Y-83704074D01*
X131422000Y-83704074D01*
X131205824Y-83644799D01*
X130826556Y-83801886D01*
X130422746Y-84168024D01*
X130409464Y-84196121D01*
X130409464Y-83984000D01*
X130379894Y-83835341D01*
X130295686Y-83709314D01*
X130169659Y-83625106D01*
X130021000Y-83595536D01*
X127989000Y-83595536D01*
X127840341Y-83625106D01*
X127714314Y-83709314D01*
X127630106Y-83835341D01*
X127600536Y-83984000D01*
X125265872Y-83984000D01*
X125005671Y-83810140D01*
X124529383Y-83715400D01*
X124480617Y-83715400D01*
X124004329Y-83810140D01*
X123600552Y-84079935D01*
X123330757Y-84483712D01*
X123236017Y-84960000D01*
X123233983Y-84960000D01*
X123139243Y-84483712D01*
X122869448Y-84079935D01*
X122465671Y-83810140D01*
X121989383Y-83715400D01*
X121940617Y-83715400D01*
X121464329Y-83810140D01*
X121060552Y-84079935D01*
X120790757Y-84483712D01*
X120696017Y-84960000D01*
X117921000Y-84960000D01*
X117921000Y-82420000D01*
X120696017Y-82420000D01*
X120790757Y-82896288D01*
X121060552Y-83300065D01*
X121464329Y-83569860D01*
X121940617Y-83664600D01*
X121989383Y-83664600D01*
X122465671Y-83569860D01*
X122869448Y-83300065D01*
X123139243Y-82896288D01*
X123233983Y-82420000D01*
X123236017Y-82420000D01*
X123330757Y-82896288D01*
X123600552Y-83300065D01*
X124004329Y-83569860D01*
X124480617Y-83664600D01*
X124529383Y-83664600D01*
X125005671Y-83569860D01*
X125409448Y-83300065D01*
X125585623Y-83036400D01*
X162675536Y-83036400D01*
X162675536Y-84763600D01*
X162705106Y-84912259D01*
X162789314Y-85038286D01*
X162915341Y-85122494D01*
X163064000Y-85152064D01*
X165096000Y-85152064D01*
X165244659Y-85122494D01*
X165370686Y-85038286D01*
X165454894Y-84912259D01*
X165484464Y-84763600D01*
X165484464Y-83036400D01*
X165454894Y-82887741D01*
X165370686Y-82761714D01*
X165244659Y-82677506D01*
X165096000Y-82647936D01*
X163064000Y-82647936D01*
X162915341Y-82677506D01*
X162789314Y-82761714D01*
X162705106Y-82887741D01*
X162675536Y-83036400D01*
X125585623Y-83036400D01*
X125679243Y-82896288D01*
X125773983Y-82420000D01*
X125679243Y-81943712D01*
X125409448Y-81539935D01*
X125005671Y-81270140D01*
X124529383Y-81175400D01*
X124480617Y-81175400D01*
X124004329Y-81270140D01*
X123600552Y-81539935D01*
X123330757Y-81943712D01*
X123236017Y-82420000D01*
X123233983Y-82420000D01*
X123139243Y-81943712D01*
X122869448Y-81539935D01*
X122465671Y-81270140D01*
X121989383Y-81175400D01*
X121940617Y-81175400D01*
X121464329Y-81270140D01*
X121060552Y-81539935D01*
X120790757Y-81943712D01*
X120696017Y-82420000D01*
X117921000Y-82420000D01*
X117921000Y-79880000D01*
X120696017Y-79880000D01*
X120790757Y-80356288D01*
X121060552Y-80760065D01*
X121464329Y-81029860D01*
X121940617Y-81124600D01*
X121989383Y-81124600D01*
X122465671Y-81029860D01*
X122869448Y-80760065D01*
X123139243Y-80356288D01*
X123233983Y-79880000D01*
X123236017Y-79880000D01*
X123330757Y-80356288D01*
X123600552Y-80760065D01*
X124004329Y-81029860D01*
X124480617Y-81124600D01*
X124529383Y-81124600D01*
X125005671Y-81029860D01*
X125409448Y-80760065D01*
X125679243Y-80356288D01*
X125773983Y-79880000D01*
X125679243Y-79403712D01*
X125409448Y-78999935D01*
X125005671Y-78730140D01*
X124529383Y-78635400D01*
X124480617Y-78635400D01*
X124004329Y-78730140D01*
X123600552Y-78999935D01*
X123330757Y-79403712D01*
X123236017Y-79880000D01*
X123233983Y-79880000D01*
X123139243Y-79403712D01*
X122869448Y-78999935D01*
X122465671Y-78730140D01*
X121989383Y-78635400D01*
X121940617Y-78635400D01*
X121464329Y-78730140D01*
X121060552Y-78999935D01*
X120790757Y-79403712D01*
X120696017Y-79880000D01*
X117921000Y-79880000D01*
X117921000Y-77597163D01*
X120747258Y-77597163D01*
X120922079Y-78019235D01*
X121261399Y-78366640D01*
X121707836Y-78557748D01*
X121901500Y-78487735D01*
X121901500Y-77403500D01*
X122028500Y-77403500D01*
X122028500Y-78487735D01*
X122222164Y-78557748D01*
X122668601Y-78366640D01*
X123007921Y-78019235D01*
X123182742Y-77597163D01*
X123112595Y-77403500D01*
X122028500Y-77403500D01*
X121901500Y-77403500D01*
X120817405Y-77403500D01*
X120747258Y-77597163D01*
X117921000Y-77597163D01*
X117921000Y-77340000D01*
X123236017Y-77340000D01*
X123330757Y-77816288D01*
X123600552Y-78220065D01*
X124004329Y-78489860D01*
X124480617Y-78584600D01*
X124529383Y-78584600D01*
X125005671Y-78489860D01*
X125409448Y-78220065D01*
X125679243Y-77816288D01*
X125773983Y-77340000D01*
X125679243Y-76863712D01*
X125409448Y-76459935D01*
X125005671Y-76190140D01*
X124529383Y-76095400D01*
X124480617Y-76095400D01*
X124004329Y-76190140D01*
X123600552Y-76459935D01*
X123330757Y-76863712D01*
X123236017Y-77340000D01*
X117921000Y-77340000D01*
X117921000Y-77082837D01*
X120747258Y-77082837D01*
X120817405Y-77276500D01*
X121901500Y-77276500D01*
X121901500Y-76192265D01*
X122028500Y-76192265D01*
X122028500Y-77276500D01*
X123112595Y-77276500D01*
X123182742Y-77082837D01*
X123007921Y-76660765D01*
X122668601Y-76313360D01*
X122222164Y-76122252D01*
X122028500Y-76192265D01*
X121901500Y-76192265D01*
X121707836Y-76122252D01*
X121261399Y-76313360D01*
X120922079Y-76660765D01*
X120747258Y-77082837D01*
X117921000Y-77082837D01*
X117921000Y-75306000D01*
X164535089Y-75306000D01*
X165932812Y-75584024D01*
G36*
X134959404Y-90907796D02*
X135123562Y-91017483D01*
X135317200Y-91056000D01*
X135506900Y-91056000D01*
X135489000Y-91099215D01*
X135489000Y-91341250D01*
X135584250Y-91436500D01*
X136336500Y-91436500D01*
X136336500Y-91416500D01*
X136463500Y-91416500D01*
X136463500Y-91436500D01*
X136483500Y-91436500D01*
X136483500Y-91563500D01*
X136463500Y-91563500D01*
X136463500Y-91583500D01*
X136336500Y-91583500D01*
X136336500Y-91563500D01*
X135584250Y-91563500D01*
X135489000Y-91658750D01*
X135489000Y-91900785D01*
X135506900Y-91944000D01*
X131814392Y-91944000D01*
X133905000Y-89853392D01*
X134959404Y-90907796D01*
X134959404Y-90907796D01*
G37*
X134959404Y-90907796D02*
X135123562Y-91017483D01*
X135317200Y-91056000D01*
X135506900Y-91056000D01*
X135489000Y-91099215D01*
X135489000Y-91341250D01*
X135584250Y-91436500D01*
X136336500Y-91436500D01*
X136336500Y-91416500D01*
X136463500Y-91416500D01*
X136463500Y-91436500D01*
X136483500Y-91436500D01*
X136483500Y-91563500D01*
X136463500Y-91563500D01*
X136463500Y-91583500D01*
X136336500Y-91583500D01*
X136336500Y-91563500D01*
X135584250Y-91563500D01*
X135489000Y-91658750D01*
X135489000Y-91900785D01*
X135506900Y-91944000D01*
X131814392Y-91944000D01*
X133905000Y-89853392D01*
X134959404Y-90907796D01*
M02*
